<?xml version="1.0" encoding="UTF-8"?>
<svg width="243px" height="40px" viewBox="0 0 243 40" version="1.1" xmlns="http://www.w3.org/2000/svg" xmlns:xlink="http://www.w3.org/1999/xlink">
    <!-- Generator: Sketch 41.2 (35397) - http://www.bohemiancoding.com/sketch -->
    <title>logo</title>
    <desc>Created with Sketch.</desc>
    <defs></defs>
    <g id="Page-1" stroke="none" stroke-width="1" fill="none" fill-rule="evenodd">
        <g id="logo">
            <g>
                <path d="M75.424,20.728 L75.424,28.776 C74.2933277,29.576004 73.0880064,30.1893312 71.808,30.616 C70.5279936,31.0426688 69.088008,31.256 67.488,31.256 C65.695991,31.256 64.0853405,30.9813361 62.656,30.432 C61.2266595,29.8826639 60.008005,29.104005 59,28.096 C57.991995,27.087995 57.2186694,25.8693405 56.68,24.44 C56.1413306,23.0106595 55.872,21.4213421 55.872,19.672 C55.872,17.9226579 56.1359974,16.3360071 56.664,14.912 C57.1920026,13.4879929 57.9493284,12.272005 58.936,11.264 C59.9226716,10.255995 61.1146597,9.47733608 62.512,8.928 C63.9093403,8.37866392 65.4826579,8.104 67.232,8.104 C68.0960043,8.104 68.8933297,8.16266608 69.624,8.28 C70.3546703,8.39733392 71.0346635,8.57066552 71.664,8.8 C72.2933365,9.02933448 72.8799973,9.31199832 73.424,9.648 C73.9680027,9.98400168 74.4906642,10.3706645 74.992,10.808 L74.544,11.512 C74.3946659,11.7680013 74.1706682,11.8266674 73.872,11.688 C73.7119992,11.6239997 73.4826682,11.4746678 73.184,11.24 C72.8853318,11.0053322 72.4746693,10.7600013 71.952,10.504 C71.4293307,10.2479987 70.7813372,10.0186677 70.008,9.816 C69.2346628,9.61333232 68.2933389,9.512 67.184,9.512 C65.7119926,9.512 64.3813393,9.74666432 63.192,10.216 C62.0026607,10.6853357 60.9893375,11.357329 60.152,12.232 C59.3146625,13.106671 58.6693356,14.173327 58.216,15.432 C57.7626644,16.690673 57.536,18.1039922 57.536,19.672 C57.536,21.2613413 57.7626644,22.6906603 58.216,23.96 C58.6693356,25.2293397 59.325329,26.3066622 60.184,27.192 C61.042671,28.0773378 62.0853272,28.7546643 63.312,29.224 C64.5386728,29.6933357 65.9199923,29.928 67.456,29.928 C68.1280034,29.928 68.7493305,29.8853338 69.32,29.8 C69.8906695,29.7146662 70.4346641,29.5946674 70.952,29.44 C71.4693359,29.2853326 71.9706642,29.0933345 72.456,28.864 C72.9413358,28.6346655 73.4346642,28.3760014 73.936,28.088 L73.936,21.992 L69.6,21.992 C69.4826661,21.992 69.3840004,21.954667 69.304,21.88 C69.2239996,21.805333 69.184,21.7200005 69.184,21.624 L69.184,20.728 L75.424,20.728 Z M80.5402352,18.92 C80.7855698,18.2693301 81.065567,17.6906692 81.3802352,17.184 C81.6949035,16.6773308 82.0575665,16.2480018 82.4682352,15.896 C82.878904,15.5439982 83.337566,15.2746676 83.8442352,15.088 C84.3509044,14.9013324 84.9135655,14.808 85.5322352,14.808 C85.8629036,14.808 86.1882336,14.837333 86.5082352,14.896 C86.8282368,14.954667 87.1109007,15.0586659 87.3562352,15.208 L87.2282352,16.264 C87.1749016,16.4346675 87.0735693,16.52 86.9242352,16.52 C86.7962346,16.52 86.6015699,16.482667 86.3402352,16.408 C86.0789006,16.333333 85.734904,16.296 85.3082352,16.296 C84.6895655,16.296 84.1429043,16.3893324 83.6682352,16.576 C83.1935662,16.7626676 82.7669038,17.0426648 82.3882352,17.416 C82.0095667,17.7893352 81.6789033,18.2506639 81.3962352,18.8 C81.1135672,19.3493361 80.8549031,19.9813298 80.6202352,20.696 L80.6202352,31 L79.0842352,31 L79.0842352,15.08 L79.9002352,15.08 C80.0815695,15.08 80.2095682,15.117333 80.2842352,15.192 C80.3589023,15.266667 80.4069018,15.3946658 80.4282352,15.576 L80.5402352,18.92 Z M98.2004705,23.304 C96.6857962,23.3573336 95.3818093,23.4773324 94.2884705,23.664 C93.1951317,23.8506676 92.2938074,24.1039984 91.5844705,24.424 C90.8751336,24.7440016 90.3498055,25.1253311 90.0084705,25.568 C89.6671354,26.0106689 89.4964705,26.5146638 89.4964705,27.08 C89.4964705,27.613336 89.5844696,28.0746647 89.7604705,28.464 C89.9364714,28.8533353 90.1711357,29.1733321 90.4644705,29.424 C90.7578053,29.6746679 91.0964686,29.8586661 91.4804705,29.976 C91.8644724,30.0933339 92.2644684,30.152 92.6804705,30.152 C93.2991402,30.152 93.8671346,30.085334 94.3844705,29.952 C94.9018064,29.818666 95.3818016,29.6320012 95.8244705,29.392 C96.2671394,29.1519988 96.6804686,28.8666683 97.0644705,28.536 C97.4484724,28.2053317 97.8271353,27.8480019 98.2004705,27.464 L98.2004705,23.304 Z M88.8404705,17.336 C89.6724746,16.5039958 90.5471326,15.8746688 91.4644705,15.448 C92.3818084,15.0213312 93.421798,14.808 94.5844705,14.808 C95.4378081,14.808 96.1844673,14.9439986 96.8244705,15.216 C97.4644737,15.4880014 97.995135,15.8773308 98.4164705,16.384 C98.8378059,16.8906692 99.1551361,17.5039964 99.3684705,18.224 C99.5818049,18.9440036 99.6884705,19.7466622 99.6884705,20.632 L99.6884705,31 L99.0804705,31 C98.7604689,31 98.5631375,30.8506682 98.4884705,30.552 L98.2644705,28.504 C97.827135,28.9306688 97.3924726,29.314665 96.9604705,29.656 C96.5284683,29.997335 96.0778062,30.2853322 95.6084705,30.52 C95.1391348,30.7546678 94.6324732,30.9359994 94.0884705,31.064 C93.5444678,31.1920006 92.9471404,31.256 92.2964705,31.256 C91.7524678,31.256 91.224473,31.1760008 90.7124705,31.016 C90.2004679,30.8559992 89.7444725,30.6106683 89.3444705,30.28 C88.9444685,29.9493317 88.6244717,29.5253359 88.3844705,29.008 C88.1444693,28.4906641 88.0244705,27.869337 88.0244705,27.144 C88.0244705,26.4719966 88.2164686,25.8480029 88.6004705,25.272 C88.9844724,24.6959971 89.587133,24.1946688 90.4084705,23.768 C91.2298079,23.3413312 92.2831307,23.0000013 93.5684705,22.744 C94.8538102,22.4879987 96.3977948,22.3386669 98.2004705,22.296 L98.2004705,20.632 C98.2004705,19.1599926 97.8831403,18.0266706 97.2484705,17.232 C96.6138006,16.4373294 95.6724767,16.04 94.4244705,16.04 C93.6564666,16.04 93.0031398,16.1466656 92.4644705,16.36 C91.9258011,16.5733344 91.4698057,16.8079987 91.0964705,17.064 C90.7231353,17.3200013 90.4191383,17.5546656 90.1844705,17.768 C89.9498026,17.9813344 89.7524713,18.088 89.5924705,18.088 C89.4751366,18.088 89.3791375,18.0613336 89.3044705,18.008 C89.2298034,17.9546664 89.1658041,17.8853338 89.1124705,17.8 L88.8404705,17.336 Z M105.540706,27.528 C105.850041,27.986669 106.172704,28.3733318 106.508706,28.688 C106.844707,29.0026682 107.199371,29.2586657 107.572706,29.456 C107.946041,29.6533343 108.34337,29.7946662 108.764706,29.88 C109.186041,29.9653338 109.63137,30.008 110.100706,30.008 C111.039377,30.008 111.860702,29.837335 112.564706,29.496 C113.268709,29.154665 113.858037,28.6720031 114.332706,28.048 C114.807375,27.4239969 115.164705,26.6773377 115.404706,25.808 C115.644707,24.9386623 115.764706,23.9813386 115.764706,22.936 C115.764706,20.5679882 115.327377,18.8266722 114.452706,17.712 C113.578035,16.5973278 112.324714,16.04 110.692706,16.04 C109.6367,16.04 108.682043,16.3119973 107.828706,16.856 C106.975368,17.4000027 106.212709,18.1573285 105.540706,19.128 L105.540706,27.528 Z M105.476706,17.944 C106.180709,16.9839952 107.004701,16.2213362 107.948706,15.656 C108.89271,15.0906638 109.951367,14.808 111.124706,14.808 C113.076715,14.808 114.599367,15.4853266 115.692706,16.84 C116.786045,18.1946734 117.332706,20.2266531 117.332706,22.936 C117.332706,24.0986725 117.180707,25.183995 116.876706,26.192 C116.572704,27.200005 116.124709,28.074663 115.532706,28.816 C114.940703,29.557337 114.215377,30.1413312 113.356706,30.568 C112.498035,30.9946688 111.508711,31.208 110.388706,31.208 C109.311367,31.208 108.378043,31.0106686 107.588706,30.616 C106.799368,30.2213314 106.116709,29.6400038 105.540706,28.872 L105.540706,36.632 L104.004706,36.632 L104.004706,15.08 L104.852706,15.08 C105.119374,15.08 105.274039,15.213332 105.316706,15.48 L105.476706,17.944 Z M122.416941,17.768 C123.152945,16.8719955 123.992936,16.157336 124.936941,15.624 C125.880946,15.090664 126.939602,14.824 128.112941,14.824 C128.987612,14.824 129.758271,14.9626653 130.424941,15.24 C131.091611,15.5173347 131.643605,15.9173307 132.080941,16.44 C132.518276,16.9626693 132.84894,17.5919963 133.072941,18.328 C133.296942,19.0640037 133.408941,19.8959954 133.408941,20.824 L133.408941,31 L131.872941,31 L131.872941,20.824 C131.872941,19.3306592 131.531611,18.1600042 130.848941,17.312 C130.166271,16.4639958 129.126281,16.04 127.728941,16.04 C126.694269,16.04 125.726279,16.3039974 124.824941,16.832 C123.923603,17.3600026 123.120944,18.0933286 122.416941,19.032 L122.416941,31 L120.880941,31 L120.880941,7.72 L122.416941,7.72 L122.416941,17.768 Z M138.221176,19.672 C138.221176,21.2613413 138.442507,22.6826604 138.885176,23.936 C139.327845,25.1893396 139.951839,26.253329 140.757176,27.128 C141.562514,28.002671 142.525171,28.669331 143.645176,29.128 C144.765182,29.586669 145.99717,29.816 147.341176,29.816 C148.69585,29.816 149.933171,29.586669 151.053176,29.128 C152.173182,28.669331 153.133172,28.002671 153.933176,27.128 C154.73318,26.253329 155.351841,25.1893396 155.789176,23.936 C156.226512,22.6826604 156.445176,21.2613413 156.445176,19.672 C156.445176,18.0933254 156.226512,16.674673 155.789176,15.416 C155.351841,14.157327 154.73318,13.090671 153.933176,12.216 C153.133172,11.341329 152.173182,10.6720023 151.053176,10.208 C149.933171,9.74399768 148.69585,9.512 147.341176,9.512 C145.99717,9.512 144.765182,9.74399768 143.645176,10.208 C142.525171,10.6720023 141.562514,11.341329 140.757176,12.216 C139.951839,13.090671 139.327845,14.157327 138.885176,15.416 C138.442507,16.674673 138.221176,18.0933254 138.221176,19.672 Z M159.069176,35.992 L157.693176,35.992 C157.277174,35.992 156.935844,35.858668 156.669176,35.592 L151.837176,30.376 C151.165173,30.6533347 150.455847,30.8666659 149.709176,31.016 C148.962506,31.1653341 148.17318,31.24 147.341176,31.24 C145.741168,31.24 144.27985,30.9653361 142.957176,30.416 C141.634503,29.8666639 140.498514,29.088005 139.549176,28.08 C138.599838,27.071995 137.863846,25.8560071 137.341176,24.432 C136.818507,23.0079929 136.557176,21.4213421 136.557176,19.672 C136.557176,17.9333246 136.818507,16.3520071 137.341176,14.928 C137.863846,13.5039929 138.599838,12.288005 139.549176,11.28 C140.498514,10.271995 141.634503,9.49066944 142.957176,8.936 C144.27985,8.38133056 145.741168,8.104 147.341176,8.104 C148.941184,8.104 150.40517,8.37866392 151.733176,8.928 C153.061183,9.47733608 154.199838,10.2586616 155.149176,11.272 C156.098514,12.2853384 156.834507,13.5039929 157.357176,14.928 C157.879846,16.3520071 158.141176,17.9333246 158.141176,19.672 C158.141176,20.813339 158.026511,21.887995 157.797176,22.896 C157.567842,23.904005 157.239845,24.8319958 156.813176,25.68 C156.386507,26.5280042 155.866513,27.2879966 155.253176,27.96 C154.63984,28.6320034 153.94918,29.2079976 153.181176,29.688 L159.069176,35.992 Z M174.953411,29.608 L174.953411,31 L162.585411,31 L162.585411,8.36 L164.233411,8.36 L164.233411,29.608 L174.953411,29.608 Z M196.657882,22.184 L194.145882,15.08 C193.996548,14.7066648 193.839216,14.2693358 193.673882,13.768 C193.508548,13.2666642 193.351216,12.7226696 193.201882,12.136 C193.052548,12.7333363 192.895216,13.2853308 192.729882,13.792 C192.564548,14.2986692 192.407216,14.7386648 192.257882,15.112 L189.761882,22.184 L196.657882,22.184 Z M204.721882,31 L200.993882,31 C200.57788,31 200.239217,30.9013343 199.977882,30.704 C199.716547,30.5066657 199.521883,30.2533349 199.393882,29.944 L197.825882,25.512 L188.577882,25.512 L187.009882,29.944 C186.903215,30.210668 186.71655,30.4533322 186.449882,30.672 C186.183214,30.8906678 185.847217,31 185.441882,31 L181.681882,31 L190.753882,7.784 L195.665882,7.784 L204.721882,31 Z M213.934117,19.336 C215.438125,19.336 216.539447,18.973337 217.238117,18.248 C217.936787,17.522663 218.286117,16.530673 218.286117,15.272 C218.286117,14.6959971 218.198118,14.170669 218.022117,13.696 C217.846116,13.221331 217.579452,12.8160017 217.222117,12.48 C216.864782,12.1439983 216.41412,11.8853342 215.870117,11.704 C215.326114,11.5226658 214.680788,11.432 213.934117,11.432 L210.894117,11.432 L210.894117,19.336 L213.934117,19.336 Z M213.934117,7.784 C215.523458,7.784 216.896778,7.9706648 218.054117,8.344 C219.211456,8.7173352 220.163447,9.23733 220.910117,9.904 C221.656788,10.57067 222.208782,11.3626621 222.566117,12.28 C222.923452,13.1973379 223.102117,14.1946613 223.102117,15.272 C223.102117,16.413339 222.915452,17.4586619 222.542117,18.408 C222.168782,19.3573381 221.603454,20.1733299 220.846117,20.856 C220.08878,21.5386701 219.134123,22.0693314 217.982117,22.448 C216.830111,22.8266686 215.480792,23.016 213.934117,23.016 L210.894117,23.016 L210.894117,31 L206.094117,31 L206.094117,7.784 L213.934117,7.784 Z M233.226352,19.336 C234.73036,19.336 235.831682,18.973337 236.530352,18.248 C237.229023,17.522663 237.578352,16.530673 237.578352,15.272 C237.578352,14.6959971 237.490353,14.170669 237.314352,13.696 C237.138352,13.221331 236.871688,12.8160017 236.514352,12.48 C236.157017,12.1439983 235.706355,11.8853342 235.162352,11.704 C234.61835,11.5226658 233.973023,11.432 233.226352,11.432 L230.186352,11.432 L230.186352,19.336 L233.226352,19.336 Z M233.226352,7.784 C234.815694,7.784 236.189013,7.9706648 237.346352,8.344 C238.503692,8.7173352 239.455682,9.23733 240.202352,9.904 C240.949023,10.57067 241.501017,11.3626621 241.858352,12.28 C242.215688,13.1973379 242.394352,14.1946613 242.394352,15.272 C242.394352,16.413339 242.207688,17.4586619 241.834352,18.408 C241.461017,19.3573381 240.89569,20.1733299 240.138352,20.856 C239.381015,21.5386701 238.426358,22.0693314 237.274352,22.448 C236.122347,22.8266686 234.773027,23.016 233.226352,23.016 L230.186352,23.016 L230.186352,31 L225.386352,31 L225.386352,7.784 L233.226352,7.784 Z" id="GraphQL-APP" fill="#000000"></path>
                <g id="Group">
                    <rect id="Rectangle" fill="#4990E2" x="0" y="0" width="40" height="40" rx="20"></rect>
                    <path d="M12.1508236,20.512 L15.4388236,20.512 L14.8948236,24.888 C14.6068221,25.096001 14.3094918,25.2773326 14.0028236,25.432 C13.6961554,25.5866674 13.3734919,25.7159995 13.0348236,25.82 C12.6961552,25.9240005 12.3374921,26.0013331 11.9588236,26.052 C11.580155,26.1026669 11.1721591,26.128 10.7348236,26.128 C10.0414868,26.128 9.41215973,26.0040012 8.84682357,25.756 C8.28148741,25.5079988 7.79882557,25.1613356 7.39882357,24.716 C6.99882157,24.2706644 6.69082465,23.7386698 6.47482357,23.12 C6.25882249,22.5013302 6.15082357,21.8240037 6.15082357,21.088 C6.15082357,20.1013284 6.30415537,19.1986708 6.61082357,18.38 C6.91749177,17.5613292 7.34148753,16.8573363 7.88282357,16.268 C8.42415961,15.6786637 9.06681985,15.221335 9.81082357,14.896 C10.5548273,14.570665 11.3668192,14.408 12.2468236,14.408 C12.6948258,14.408 13.0988218,14.445333 13.4588236,14.52 C13.8188254,14.594667 14.1468221,14.698666 14.4428236,14.832 C14.738825,14.965334 15.005489,15.1226658 15.2428236,15.304 C15.4801581,15.4853342 15.6974892,15.6826656 15.8948236,15.896 L15.4148236,16.52 C15.3348232,16.6320006 15.2401574,16.7013332 15.1308236,16.728 C15.0214897,16.7546668 14.9081575,16.730667 14.7908236,16.656 C14.6734896,16.5866663 14.5441576,16.4973339 14.4028236,16.388 C14.2614895,16.2786661 14.0894912,16.1746672 13.8868236,16.076 C13.6841559,15.9773328 13.4414916,15.8920004 13.1588236,15.82 C12.8761555,15.7479996 12.5348256,15.712 12.1348236,15.712 C11.4788203,15.712 10.877493,15.8373321 10.3308236,16.088 C9.78415417,16.3386679 9.31482553,16.6959977 8.92282357,17.16 C8.53082161,17.6240023 8.22682465,18.1839967 8.01082357,18.84 C7.79482249,19.4960033 7.68682357,20.2266626 7.68682357,21.032 C7.68682357,21.6346697 7.76548945,22.1759976 7.92282357,22.656 C8.08015769,23.1360024 8.30282213,23.5439983 8.59082357,23.88 C8.87882501,24.2160017 9.22548821,24.4733324 9.63082357,24.652 C10.0361589,24.8306676 10.4868211,24.92 10.9828236,24.92 C11.2601583,24.92 11.5188224,24.9040002 11.7588236,24.872 C11.9988248,24.8399998 12.2254892,24.7960003 12.4388236,24.74 C12.652158,24.6839997 12.8548226,24.6146671 13.0468236,24.532 C13.2388245,24.4493329 13.4308226,24.3546672 13.6228236,24.248 L13.9428236,21.656 L12.3428236,21.656 C12.2468231,21.656 12.1721572,21.6280003 12.1188236,21.572 C12.06549,21.5159997 12.0441568,21.4480004 12.0548236,21.368 L12.1508236,20.512 Z M18.1889412,21.056 C18.1889412,21.6373362 18.2622738,22.1626643 18.4089412,22.632 C18.5556086,23.1013357 18.7676065,23.5013317 19.0449412,23.832 C19.3222759,24.1626683 19.6582725,24.4173324 20.0529412,24.596 C20.4476098,24.7746676 20.8929387,24.864 21.3889412,24.864 C22.023611,24.864 22.6049385,24.7386679 23.1329412,24.488 C23.6609438,24.2373321 24.1142726,23.878669 24.4929412,23.412 C24.8716097,22.945331 25.1662735,22.3800033 25.3769412,21.716 C25.5876089,21.0519967 25.6929412,20.3093374 25.6929412,19.488 C25.6929412,18.9066638 25.6182753,18.3800024 25.4689412,17.908 C25.3196071,17.4359976 25.1076092,17.0346683 24.8329412,16.704 C24.5582731,16.3733317 24.2222765,16.1173342 23.8249412,15.936 C23.4276059,15.7546658 22.9809437,15.664 22.4849412,15.664 C21.8556047,15.664 21.2782771,15.7906654 20.7529412,16.044 C20.2276052,16.2973346 19.7742764,16.6586643 19.3929412,17.128 C19.0116059,17.5973357 18.7156089,18.1639967 18.5049412,18.828 C18.2942735,19.4920033 18.1889412,20.2346626 18.1889412,21.056 Z M23.0449412,25.84 C22.4689383,26.0266676 21.8609444,26.12 21.2209412,26.12 C20.5169377,26.12 19.8836107,25.9946679 19.3209412,25.744 C18.7582717,25.4933321 18.2782765,25.1453356 17.8809412,24.7 C17.4836059,24.2546644 17.1796089,23.7253364 16.9689412,23.112 C16.7582735,22.4986636 16.6529412,21.8266703 16.6529412,21.096 C16.6529412,20.1199951 16.8049397,19.2226708 17.1089412,18.404 C17.4129427,17.5853292 17.8342718,16.880003 18.3729412,16.288 C18.9116105,15.695997 19.5476042,15.2346683 20.2809412,14.904 C21.0142782,14.5733317 21.8102702,14.408 22.6689412,14.408 C23.3729447,14.408 24.0062717,14.5346654 24.5689412,14.788 C25.1316107,15.0413346 25.6102725,15.3919978 26.0049412,15.84 C26.3996098,16.2880022 26.7022735,16.8199969 26.9129412,17.436 C27.1236089,18.0520031 27.2289412,18.7253297 27.2289412,19.456 C27.2289412,20.1013366 27.1609419,20.7119971 27.0249412,21.288 C26.8889405,21.8640029 26.6969424,22.3986642 26.4489412,22.892 C26.2009399,23.3853358 25.8982763,23.8293314 25.5409412,24.224 C25.1836061,24.6186686 24.7862767,24.9546653 24.3489412,25.232 L26.6689412,28.376 L25.4609412,28.376 C25.2742736,28.376 25.1129419,28.3493336 24.9769412,28.296 C24.8409405,28.2426664 24.7196084,28.1520006 24.6129412,28.024 L23.0449412,25.84 Z M34.3710588,24.736 L34.2190588,26 L28.1950588,26 L29.6030588,14.536 L31.0990588,14.536 L29.8430588,24.736 L34.3710588,24.736 Z" id="GQL" fill="#FFFFFF"></path>
                </g>
            </g>
        </g>
    </g>
</svg>