<?xml version="1.0" encoding="UTF-8"?>
<svg width="40px" height="40px" viewBox="0 0 40 40" version="1.1" xmlns="http://www.w3.org/2000/svg" xmlns:xlink="http://www.w3.org/1999/xlink">
    <!-- Generator: Sketch 41.2 (35397) - http://www.bohemiancoding.com/sketch -->
    <title>logoIcon</title>
    <desc>Created with Sketch.</desc>
    <defs></defs>
    <g id="Page-1" stroke="none" stroke-width="1" fill="none" fill-rule="evenodd">
        <g id="logo">
            <g id="logoIcon">
                <g id="Group">
                    <rect id="Rectangle" fill="#4990E2" x="0" y="0" width="40" height="40" rx="20"></rect>
                    <path d="M12.1508236,20.512 L15.4388236,20.512 L14.8948236,24.888 C14.6068221,25.096001 14.3094918,25.2773326 14.0028236,25.432 C13.6961554,25.5866674 13.3734919,25.7159995 13.0348236,25.82 C12.6961552,25.9240005 12.3374921,26.0013331 11.9588236,26.052 C11.580155,26.1026669 11.1721591,26.128 10.7348236,26.128 C10.0414868,26.128 9.41215973,26.0040012 8.84682357,25.756 C8.28148741,25.5079988 7.79882557,25.1613356 7.39882357,24.716 C6.99882157,24.2706644 6.69082465,23.7386698 6.47482357,23.12 C6.25882249,22.5013302 6.15082357,21.8240037 6.15082357,21.088 C6.15082357,20.1013284 6.30415537,19.1986708 6.61082357,18.38 C6.91749177,17.5613292 7.34148753,16.8573363 7.88282357,16.268 C8.42415961,15.6786637 9.06681985,15.221335 9.81082357,14.896 C10.5548273,14.570665 11.3668192,14.408 12.2468236,14.408 C12.6948258,14.408 13.0988218,14.445333 13.4588236,14.52 C13.8188254,14.594667 14.1468221,14.698666 14.4428236,14.832 C14.738825,14.965334 15.005489,15.1226658 15.2428236,15.304 C15.4801581,15.4853342 15.6974892,15.6826656 15.8948236,15.896 L15.4148236,16.52 C15.3348232,16.6320006 15.2401574,16.7013332 15.1308236,16.728 C15.0214897,16.7546668 14.9081575,16.730667 14.7908236,16.656 C14.6734896,16.5866663 14.5441576,16.4973339 14.4028236,16.388 C14.2614895,16.2786661 14.0894912,16.1746672 13.8868236,16.076 C13.6841559,15.9773328 13.4414916,15.8920004 13.1588236,15.82 C12.8761555,15.7479996 12.5348256,15.712 12.1348236,15.712 C11.4788203,15.712 10.877493,15.8373321 10.3308236,16.088 C9.78415417,16.3386679 9.31482553,16.6959977 8.92282357,17.16 C8.53082161,17.6240023 8.22682465,18.1839967 8.01082357,18.84 C7.79482249,19.4960033 7.68682357,20.2266626 7.68682357,21.032 C7.68682357,21.6346697 7.76548945,22.1759976 7.92282357,22.656 C8.08015769,23.1360024 8.30282213,23.5439983 8.59082357,23.88 C8.87882501,24.2160017 9.22548821,24.4733324 9.63082357,24.652 C10.0361589,24.8306676 10.4868211,24.92 10.9828236,24.92 C11.2601583,24.92 11.5188224,24.9040002 11.7588236,24.872 C11.9988248,24.8399998 12.2254892,24.7960003 12.4388236,24.74 C12.652158,24.6839997 12.8548226,24.6146671 13.0468236,24.532 C13.2388245,24.4493329 13.4308226,24.3546672 13.6228236,24.248 L13.9428236,21.656 L12.3428236,21.656 C12.2468231,21.656 12.1721572,21.6280003 12.1188236,21.572 C12.06549,21.5159997 12.0441568,21.4480004 12.0548236,21.368 L12.1508236,20.512 Z M18.1889412,21.056 C18.1889412,21.6373362 18.2622738,22.1626643 18.4089412,22.632 C18.5556086,23.1013357 18.7676065,23.5013317 19.0449412,23.832 C19.3222759,24.1626683 19.6582725,24.4173324 20.0529412,24.596 C20.4476098,24.7746676 20.8929387,24.864 21.3889412,24.864 C22.023611,24.864 22.6049385,24.7386679 23.1329412,24.488 C23.6609438,24.2373321 24.1142726,23.878669 24.4929412,23.412 C24.8716097,22.945331 25.1662735,22.3800033 25.3769412,21.716 C25.5876089,21.0519967 25.6929412,20.3093374 25.6929412,19.488 C25.6929412,18.9066638 25.6182753,18.3800024 25.4689412,17.908 C25.3196071,17.4359976 25.1076092,17.0346683 24.8329412,16.704 C24.5582731,16.3733317 24.2222765,16.1173342 23.8249412,15.936 C23.4276059,15.7546658 22.9809437,15.664 22.4849412,15.664 C21.8556047,15.664 21.2782771,15.7906654 20.7529412,16.044 C20.2276052,16.2973346 19.7742764,16.6586643 19.3929412,17.128 C19.0116059,17.5973357 18.7156089,18.1639967 18.5049412,18.828 C18.2942735,19.4920033 18.1889412,20.2346626 18.1889412,21.056 Z M23.0449412,25.84 C22.4689383,26.0266676 21.8609444,26.12 21.2209412,26.12 C20.5169377,26.12 19.8836107,25.9946679 19.3209412,25.744 C18.7582717,25.4933321 18.2782765,25.1453356 17.8809412,24.7 C17.4836059,24.2546644 17.1796089,23.7253364 16.9689412,23.112 C16.7582735,22.4986636 16.6529412,21.8266703 16.6529412,21.096 C16.6529412,20.1199951 16.8049397,19.2226708 17.1089412,18.404 C17.4129427,17.5853292 17.8342718,16.880003 18.3729412,16.288 C18.9116105,15.695997 19.5476042,15.2346683 20.2809412,14.904 C21.0142782,14.5733317 21.8102702,14.408 22.6689412,14.408 C23.3729447,14.408 24.0062717,14.5346654 24.5689412,14.788 C25.1316107,15.0413346 25.6102725,15.3919978 26.0049412,15.84 C26.3996098,16.2880022 26.7022735,16.8199969 26.9129412,17.436 C27.1236089,18.0520031 27.2289412,18.7253297 27.2289412,19.456 C27.2289412,20.1013366 27.1609419,20.7119971 27.0249412,21.288 C26.8889405,21.8640029 26.6969424,22.3986642 26.4489412,22.892 C26.2009399,23.3853358 25.8982763,23.8293314 25.5409412,24.224 C25.1836061,24.6186686 24.7862767,24.9546653 24.3489412,25.232 L26.6689412,28.376 L25.4609412,28.376 C25.2742736,28.376 25.1129419,28.3493336 24.9769412,28.296 C24.8409405,28.2426664 24.7196084,28.1520006 24.6129412,28.024 L23.0449412,25.84 Z M34.3710588,24.736 L34.2190588,26 L28.1950588,26 L29.6030588,14.536 L31.0990588,14.536 L29.8430588,24.736 L34.3710588,24.736 Z" id="GQL" fill="#FFFFFF"></path>
                </g>
            </g>
        </g>
    </g>
</svg>