<?xml version="1.0" encoding="UTF-8"?>
<svg width="20px" height="16px" viewBox="0 0 20 16" version="1.1" xmlns="http://www.w3.org/2000/svg" xmlns:xlink="http://www.w3.org/1999/xlink">
    <!-- Generator: Sketch 41.2 (35397) - http://www.bohemiancoding.com/sketch -->
    <title>Combined Shape</title>
    <desc>Created with Sketch.</desc>
    <defs></defs>
    <g id="Page-1" stroke="none" stroke-width="1" fill="none" fill-rule="evenodd">
        <g id="Artboard-1" transform="translate(-1188.000000, -29.000000)" fill="#FFFFFF">
            <g id="TopBar" transform="translate(-142.000000, -12.000000)">
                <g id="Group-2" transform="translate(1330.000000, 41.000000)">
                    <path d="M0,1.25 C0,0.559644063 0.555788577,0 1.25108957,0 L18.7489104,0 C19.4398681,0 20,0.554831028 20,1.25 C20,1.94035594 19.4442114,2.5 18.7489104,2.5 L1.25108957,2.5 C0.560131881,2.5 0,1.94516897 0,1.25 Z M0,7.91666667 C0,7.22631073 0.555788577,6.66666667 1.25108957,6.66666667 L18.7489104,6.66666667 C19.4398681,6.66666667 20,7.22149769 20,7.91666667 C20,8.6070226 19.4442114,9.16666667 18.7489104,9.16666667 L1.25108957,9.16666667 C0.560131881,9.16666667 0,8.61183564 0,7.91666667 Z M0,14.5833333 C0,13.8929774 0.555788577,13.3333333 1.25108957,13.3333333 L18.7489104,13.3333333 C19.4398681,13.3333333 20,13.8881644 20,14.5833333 C20,15.2736893 19.4442114,15.8333333 18.7489104,15.8333333 L1.25108957,15.8333333 C0.560131881,15.8333333 0,15.2785023 0,14.5833333 Z" id="Combined-Shape"></path>
                </g>
            </g>
        </g>
    </g>
</svg>