<?xml version="1.0" encoding="UTF-8"?>
<svg width="151px" height="40px" viewBox="0 0 151 40" version="1.1" xmlns="http://www.w3.org/2000/svg" xmlns:xlink="http://www.w3.org/1999/xlink">
    <!-- Generator: Sketch 41.2 (35397) - http://www.bohemiancoding.com/sketch -->
    <title>accenture</title>
    <desc>Created with Sketch.</desc>
    <defs></defs>
    <g id="Desktop" stroke="none" stroke-width="1" fill="none" fill-rule="evenodd">
        <g id="Artboard-2" transform="translate(-579.000000, -456.000000)" fill="#9D9AA3">
            <g id="Group-2" transform="translate(188.000000, 445.000000)">
                <g id="accenture" transform="translate(391.400000, 11.000000)">
                    <g id="Layer_1">
                        <g id="Group">
                            <path d="M0.319148936,34 C0.359042553,33.88 0.39893617,33.72 0.438829787,33.6 C0.678191489,31.8 1.6356383,30.52 3.2712766,29.76 C4.2287234,29.28 5.26595745,29.04 6.34308511,28.92 C7.18085106,28.8 8.05851064,28.8 8.8962766,28.8 L10.6117021,28.8 C10.6515957,28.76 10.6515957,28.76 10.6515957,28.72 C10.6914894,28.16 10.6914894,27.56 10.5718085,27 C10.3324468,25.92 9.69414894,25.36 8.57712766,25.2 C8.17819149,25.16 7.7393617,25.16 7.34042553,25.24 C6.38297872,25.48 5.82446809,26.08 5.58510638,27.04 C5.54521277,27.16 5.54521277,27.24 5.50531915,27.4 L0.917553191,27.4 C0.877659574,27.16 0.957446809,26.92 0.997340426,26.68 C1.43617021,24.52 2.71276596,23.12 4.70744681,22.32 C5.90425532,21.84 7.14095745,21.72 8.41755319,21.72 C9.53457447,21.72 10.6117021,21.84 11.6489362,22.2 C12.287234,22.4 12.8856383,22.72 13.4441489,23.16 C14.5611702,24.04 15.1595745,25.16 15.3590426,26.52 C15.4388298,27 15.4787234,27.48 15.4787234,28 L15.4787234,38.96 L15.4787234,39.36 L10.7712766,39.36 L10.7712766,37.48 C10.6914894,37.56 10.6515957,37.6 10.6117021,37.64 C9.73404255,38.8 8.53723404,39.44 7.10106383,39.68 C6.78191489,39.72 6.46276596,39.76 6.14361702,39.8 L5.98404255,39.8 C5.8643617,39.8 5.74468085,39.76 5.625,39.76 C5.06648936,39.72 4.54787234,39.64 4.02925532,39.52 C2.03457447,38.92 0.79787234,37.64 0.518617021,35.52 C0.518617021,35.4 0.438829787,35.28 0.39893617,35.16 C0.319148936,34.72 0.319148936,34.36 0.319148936,34 Z M10.6515957,31.96 L10.0132979,31.96 C9.21542553,32 8.37765957,32 7.57978723,32.04 C7.06117021,32.08 6.54255319,32.2 6.06382979,32.48 C5.58510638,32.76 5.26595745,33.16 5.18617021,33.72 C5.1462766,33.96 5.1462766,34.24 5.1462766,34.48 C5.18617021,35.36 5.66489362,36 6.54255319,36.2 C7.46010638,36.44 8.37765957,36.36 9.25531915,35.92 C10.0132979,35.52 10.5319149,34.88 10.6117021,34 C10.6515957,33.36 10.6515957,32.68 10.6515957,31.96 Z" id="Shape"></path>
                            <path d="M62.1941489,39.76 C61.9946809,39.76 61.8351064,39.72 61.6356383,39.72 C60.4787234,39.64 59.3218085,39.4 58.2446809,38.92 C56.2898936,38 55.0531915,36.44 54.4148936,34.4 C54.1356383,33.52 54.0159574,32.64 53.9760638,31.72 C53.8962766,30.32 53.9760638,28.92 54.375,27.56 C54.8537234,25.92 55.6914894,24.48 57.0478723,23.4 C58.1648936,22.52 59.4414894,22 60.837766,21.84 C62.3138298,21.64 63.75,21.72 65.1861702,22.2 C67.6994681,23.04 69.1755319,24.8 69.7739362,27.36 C69.9734043,28.16 70.0132979,29 70.0531915,29.84 L70.0531915,31.68 C70.0531915,31.76 70.0531915,31.84 70.0132979,31.96 L58.8430851,31.96 C58.8829787,32.2 58.8829787,32.4 58.8829787,32.56 C58.962766,33.08 59.0425532,33.6 59.2420213,34.08 C59.7606383,35.4 60.7180851,36.12 62.1143617,36.2 C62.5930851,36.24 63.0718085,36.2 63.5505319,36.04 C64.4680851,35.76 65.106383,35.16 65.4255319,34.28 C65.4654255,34.2 65.5053191,34.08 65.5452128,34 C65.5452128,34 65.5452128,34 65.5851064,33.96 L69.9734043,33.96 C69.9734043,34.08 69.9335106,34.2 69.9335106,34.28 C69.4148936,36.68 67.9787234,38.24 65.7047872,39.12 C64.8271277,39.48 63.8696809,39.64 62.9521277,39.68 C62.7925532,39.68 62.6329787,39.72 62.4734043,39.72 C62.393617,39.76 62.2739362,39.76 62.1941489,39.76 Z M58.9228723,28.68 C59.3218085,28.76 65.1462766,28.72 65.3457447,28.64 C65.3058511,27.88 65.1861702,27.12 64.8271277,26.44 C64.4680851,25.76 63.9095745,25.32 63.1515957,25.16 C62.9521277,25.12 62.7526596,25.08 62.5531915,25.08 C61.6755319,25 60.837766,25.16 60.1595745,25.8 C59.3617021,26.6 59.0824468,27.64 58.9228723,28.68 Z" id="Shape"></path>
                            <path d="M141.861702,39.76 C141.662234,39.76 141.462766,39.72 141.263298,39.72 C140.146277,39.64 139.069149,39.44 138.031915,38.96 C136.037234,38.04 134.760638,36.52 134.082447,34.44 C133.56383,32.88 133.523936,31.24 133.643617,29.6 C133.723404,28.44 133.962766,27.32 134.441489,26.28 C135.598404,23.76 137.553191,22.28 140.265957,21.84 C141.62234,21.6 142.978723,21.68 144.295213,22 C147.007979,22.72 148.683511,24.44 149.361702,27.12 C149.521277,27.72 149.601064,28.32 149.640957,28.96 C149.640957,29.04 149.680851,29.16 149.680851,29.24 L149.680851,31.88 L149.281915,31.88 L138.909574,31.88 L138.470745,31.88 C138.510638,32.2 138.510638,32.44 138.550532,32.72 C138.670213,33.44 138.829787,34.12 139.18883,34.72 C139.547872,35.32 140.066489,35.76 140.744681,36 C141.422872,36.2 142.101064,36.24 142.779255,36.12 C143.93617,35.92 144.734043,35.28 145.093085,34.16 C145.132979,34.08 145.132979,34 145.172872,33.96 C145.611702,33.88 149.361702,33.92 149.56117,34 L149.56117,34.28 C149.56117,34.36 149.521277,34.4 149.521277,34.48 C149.042553,36.48 147.845745,37.96 146.010638,38.88 C144.933511,39.4 143.816489,39.64 142.659574,39.72 C142.460106,39.72 142.260638,39.76 142.06117,39.76 C142.021277,39.76 141.941489,39.76 141.861702,39.76 Z M144.973404,28.72 C144.933511,27.92 144.81383,27.16 144.454787,26.48 C144.095745,25.84 143.537234,25.4 142.819149,25.24 C142.619681,25.2 142.420213,25.16 142.220745,25.12 C140.864362,25 139.74734,25.52 139.109043,26.8 C138.829787,27.36 138.670213,27.92 138.590426,28.52 L138.590426,28.68 C140.744681,28.72 142.859043,28.72 144.973404,28.72 Z" id="Shape"></path>
                            <path d="M108.710106,39.76 C108.590426,39.76 108.470745,39.72 108.351064,39.72 C107.832447,39.68 107.31383,39.6 106.835106,39.44 C105.159574,38.88 104.202128,37.68 103.723404,36 C103.523936,35.32 103.444149,34.64 103.444149,33.92 L103.444149,22.44 L103.444149,22.12 L108.271277,22.12 L108.271277,22.48 L108.271277,32.92 C108.271277,33.36 108.271277,33.8 108.390957,34.24 C108.630319,35.24 109.308511,35.84 110.345745,35.92 C110.784574,35.96 111.223404,35.96 111.662234,35.84 C112.819149,35.52 113.49734,34.76 113.696809,33.6 C113.736702,33.32 113.776596,33.04 113.776596,32.72 L113.776596,22.48 L113.776596,22.12 C114.015957,22.04 118.125,22.04 118.56383,22.08 L118.56383,39.28 C118.364362,39.36 114.255319,39.36 113.776596,39.32 L113.776596,38.16 C113.776596,37.76 113.776596,37.4 113.736702,37 C113.696809,37.08 113.656915,37.16 113.617021,37.2 C112.779255,38.6 111.50266,39.4 109.906915,39.64 C109.667553,39.68 109.428191,39.68 109.148936,39.72 C109.069149,39.72 108.989362,39.76 108.869681,39.76 C108.829787,39.76 108.789894,39.76 108.710106,39.76 Z" id="Shape"></path>
                            <path d="M26.25,39.76 C26.0505319,39.76 25.8909574,39.72 25.6914894,39.72 C24.4946809,39.64 23.337766,39.4 22.2606383,38.84 C20.3856383,37.88 19.2287234,36.32 18.6303191,34.36 C18.1914894,32.96 18.1117021,31.48 18.1914894,30 C18.2712766,28.88 18.4308511,27.76 18.8696809,26.72 C19.9867021,24 22.0212766,22.4 24.893617,21.92 C26.4494681,21.64 28.0053191,21.76 29.5212766,22.28 C31.8351064,23.08 33.231383,24.72 33.7898936,27.08 C33.8696809,27.4 33.9095745,27.76 33.9494681,28.08 L33.9494681,28.28 L29.3617021,28.28 C29.3218085,28.16 29.2819149,28 29.2420213,27.88 C29.162234,27.6 29.0824468,27.36 28.962766,27.08 C28.4441489,25.92 27.4468085,25.44 26.2101064,25.52 C25.0132979,25.64 24.2154255,26.24 23.6968085,27.32 C23.337766,28 23.1781915,28.76 23.1382979,29.52 C23.0585106,30.68 23.0585106,31.8 23.2579787,32.96 C23.337766,33.44 23.4574468,33.92 23.6968085,34.36 C24.2952128,35.68 25.4521277,36.28 26.8882979,36.16 C28.2047872,36.04 29.0425532,35.24 29.481383,34.04 C29.6010638,33.72 29.6808511,33.4 29.7606383,33.08 L34.1090426,33.08 C34.1489362,33.36 34.0691489,33.6 34.0292553,33.84 C33.75,35.44 33.1117021,36.84 31.9148936,37.92 C30.9574468,38.8 29.8404255,39.32 28.5638298,39.56 C28.0053191,39.68 27.4069149,39.68 26.8484043,39.76 C26.768617,39.76 26.6888298,39.8 26.5691489,39.8 C26.4095745,39.76 26.3297872,39.76 26.25,39.76 Z" id="Shape"></path>
                            <path d="M44.162234,39.76 C43.962766,39.76 43.8031915,39.72 43.6037234,39.72 C42.3271277,39.64 41.0904255,39.36 39.9734043,38.72 C38.2579787,37.8 37.1808511,36.36 36.5824468,34.52 C36.2632979,33.56 36.1037234,32.6 36.0638298,31.6 C35.9840426,30.2 36.0638298,28.84 36.462766,27.52 C37.0212766,25.56 38.0984043,23.96 39.893617,22.88 C40.9707447,22.24 42.1276596,21.88 43.3643617,21.76 C44.7606383,21.64 46.1569149,21.72 47.4734043,22.2 C49.7473404,23 51.143617,24.64 51.7021277,27 C51.7819149,27.32 51.8218085,27.64 51.8617021,27.96 L51.8617021,28.16 L47.2739362,28.16 C47.2340426,28.04 47.1941489,27.92 47.1542553,27.8 C47.0744681,27.52 46.9946809,27.28 46.875,27 C46.356383,25.84 45.3989362,25.32 44.1223404,25.44 C42.9654255,25.52 42.1276596,26.12 41.6090426,27.16 C41.25,27.88 41.0505319,28.64 41.0106383,29.44 C40.9308511,30.6 40.9308511,31.72 41.1303191,32.88 C41.2101064,33.36 41.3696809,33.84 41.5691489,34.32 C42.2074468,35.64 43.3244681,36.2 44.7207447,36.08 C45.9574468,35.96 46.7952128,35.24 47.2739362,34.12 C47.4335106,33.76 47.5132979,33.4 47.6329787,33 L51.981383,33 C51.9414894,33.28 51.9414894,33.52 51.9015957,33.76 C51.6223404,35.4 50.9441489,36.84 49.6675532,37.96 C48.6303191,38.84 47.4335106,39.36 46.1170213,39.6 C45.6382979,39.68 45.1994681,39.68 44.7207447,39.76 C44.6409574,39.76 44.5611702,39.8 44.4414894,39.8 C44.3218085,39.76 44.2420213,39.76 44.162234,39.76 Z" id="Shape"></path>
                            <path d="M87.4468085,0.24 C87.5664894,0.28 87.6462766,0.36 87.7659574,0.4 C92.4335106,2.28 97.1409574,4.2 101.808511,6.08 C102.12766,6.2 102.087766,6.16 102.087766,6.52 L102.087766,9.6 L102.087766,9.92 C97.1808511,11.92 92.2739362,13.88 87.3670213,15.88 L87.3670213,11.28 C90.1994681,10.24 93.0319149,9.16 95.8643617,8.12 L95.8643617,8.04 C93.0319149,6.92 90.1994681,5.84 87.3670213,4.72 L87.3670213,0.24 C87.4069149,0.24 87.4468085,0.24 87.4468085,0.24 Z" id="Shape"></path>
                            <path d="M73.0053191,22.12 L77.7925532,22.12 L77.7925532,24.52 L77.8324468,24.52 C77.8723404,24.44 77.9521277,24.36 77.9920213,24.28 C78.9095745,22.84 80.2659574,22.08 81.9015957,21.8 C82.7393617,21.68 83.5771277,21.68 84.4148936,21.88 C86.0505319,22.24 87.1276596,23.24 87.6861702,24.8 C88.0053191,25.72 88.1648936,26.64 88.1648936,27.6 L88.1648936,39.04 L88.1648936,39.32 L83.3776596,39.32 L83.3776596,38.96 L83.3776596,28.6 C83.3776596,28.24 83.337766,27.92 83.2978723,27.56 C83.1382979,26.44 82.5,25.84 81.3829787,25.68 C80.8643617,25.6 80.3457447,25.64 79.8271277,25.76 C78.75,26.08 78.1117021,26.84 77.8723404,27.92 C77.7925532,28.24 77.7925532,28.56 77.7925532,28.92 L77.7925532,38.96 L77.7925532,39.32 C77.5531915,39.4 73.3643617,39.4 73.0053191,39.36 L73.0053191,22.12 Z" id="Shape"></path>
                            <path d="M92.3537234,25.68 L90.3590426,25.68 L90.3590426,22.08 L92.3138298,22.08 L92.3138298,18.84 C93.9095745,18.2 95.5053191,17.52 97.1409574,16.88 C97.2207447,17 97.1808511,17.12 97.1808511,17.24 L97.1808511,21.72 L97.1808511,22.12 L100.412234,22.12 C100.492021,22.36 100.492021,25.24 100.452128,25.72 L97.1808511,25.72 L97.1808511,26.08 L97.1808511,33.88 C97.1808511,34.12 97.2207447,34.4 97.2606383,34.64 C97.4202128,35.36 97.8989362,35.76 98.6569149,35.8 C99.2553191,35.84 99.8138298,35.8 100.412234,35.6 C100.452128,35.6 100.492021,35.56 100.571809,35.56 L100.571809,39.32 C100.412234,39.36 100.25266,39.4 100.053191,39.44 C98.5771277,39.76 97.1010638,39.8 95.6648936,39.4 C94.5478723,39.12 93.6702128,38.56 93.0718085,37.52 C92.6728723,36.84 92.4734043,36.12 92.4335106,35.36 C92.393617,34.96 92.393617,34.52 92.393617,34.12 L92.393617,26.16 C92.3537234,25.96 92.3537234,25.84 92.3537234,25.68 Z" id="Shape"></path>
                            <path d="M126.981383,25.12 C127.978723,22.92 129.654255,21.84 132.087766,21.88 L132.087766,26.6 C131.968085,26.6 131.808511,26.64 131.68883,26.64 C130.930851,26.64 130.172872,26.72 129.454787,26.96 C129.255319,27.04 129.015957,27.12 128.816489,27.2 C127.779255,27.68 127.180851,28.52 127.021277,29.64 C126.981383,30 126.941489,30.36 126.941489,30.72 L126.941489,39 L126.941489,39.36 L122.154255,39.36 L122.154255,22.12 L126.941489,22.12 L126.941489,25.08 C126.941489,25.08 126.981383,25.08 126.981383,25.12 Z" id="Shape"></path>
                        </g>
                    </g>
                </g>
            </g>
        </g>
    </g>
</svg>