<?xml version="1.0" encoding="UTF-8"?>
<svg width="153px" height="30px" viewBox="0 0 153 30" version="1.1" xmlns="http://www.w3.org/2000/svg" xmlns:xlink="http://www.w3.org/1999/xlink">
    <!-- Generator: Sketch 41.2 (35397) - http://www.bohemiancoding.com/sketch -->
    <title>amazon</title>
    <desc>Created with Sketch.</desc>
    <defs></defs>
    <g id="Desktop" stroke="none" stroke-width="1" fill="none" fill-rule="evenodd">
        <g id="Artboard-2" transform="translate(-188.000000, -472.000000)" fill="#9D9AA3">
            <g id="Group-2" transform="translate(188.000000, 445.000000)">
                <g id="amazon" transform="translate(0.000000, 27.000000)">
                    <g id="svg1936">
                        <g id="layer1" transform="translate(0.012084, 0.133692)">
                            <g id="g1967" transform="translate(0.013440, 0.013234)">
                                <path d="M61.534685,23.2785873 C55.7765838,27.4859004 47.4305676,29.730654 40.2448031,29.730654 C30.169202,29.730654 21.0985755,26.0364306 14.2362959,19.8922171 C13.6971487,19.4090578 14.1802227,18.7505989 14.8272027,19.1268604 C22.23294,23.3983089 31.3898356,25.968019 40.848651,25.968019 C47.2278481,25.968019 54.2454013,24.6596455 60.6979267,21.9445629 C61.6727071,21.5340914 62.4878985,22.5773693 61.534685,23.2785873" id="path8"></path>
                                <path d="M63.9285047,20.5635047 C63.1952605,19.6313976 59.0632301,20.1231062 57.2085609,20.3411681 C56.6435315,20.4095798 56.5572705,19.9221475 57.0662235,19.5715352 C60.3571852,17.2754733 65.757295,17.9382101 66.3870201,18.7078398 C67.016742,19.4817473 66.2231191,24.8477803 63.1305632,27.4089347 C62.6561133,27.8023012 62.2032286,27.5927933 62.4145771,27.0711527 C63.1089979,25.3523127 64.6660593,21.4998881 63.9285047,20.5635047" id="path10"></path>
                                <path d="M57.3379573,3.36227357 L57.3379573,1.13034704 C57.3379573,0.792565107 57.5967483,0.56595228 57.9072972,0.56595228 L67.9872087,0.56595228 C68.3107004,0.56595228 68.5694914,0.796841343 68.5694914,1.13034704 L68.5694914,3.04159495 C68.5651809,3.36227357 68.2934472,3.78129422 67.8103682,4.44403102 L62.5871022,11.8367557 C64.5280372,11.7897252 66.5768001,12.0761956 68.3365793,13.0596126 C68.7333924,13.2819492 68.8412218,13.6069041 68.8714145,13.9275859 L68.8714145,16.3091628 C68.8714145,16.6341177 68.5091061,17.0146538 68.1295461,16.817973 C65.0283644,15.2060242 60.9092735,15.0307197 57.4802914,16.8350763 C57.1309241,17.0232079 56.7643037,16.6469448 56.7643037,16.3219899 L56.7643037,14.060133 C56.7643037,13.6966969 56.7686141,13.0767143 57.1352345,12.5251466 L63.1866347,3.92239373 L57.9202366,3.92239373 C57.5967483,3.92239373 57.3379573,3.69578253 57.3379573,3.36227357" id="path12"></path>
                                <path d="M20.5680507,17.2883004 L17.501377,17.2883004 C17.208083,17.2669241 16.9751692,17.0488621 16.9536024,16.7709377 L16.9536024,1.16883154 C16.9536024,0.856703766 17.2167071,0.608709755 17.5445091,0.608709755 L20.4041497,0.608709755 C20.7017624,0.62152868 20.9389849,0.848149662 20.9605534,1.13034704 L20.9605534,3.16986901 L21.016625,3.16986901 C21.7628054,1.19875868 23.1645882,0.279478661 25.0537655,0.279478661 C26.9731319,0.279478661 28.172197,1.19875868 29.0348342,3.16986901 C29.7767026,1.19875868 31.463157,0.279478661 33.2703837,0.279478661 C34.555713,0.279478661 35.9618112,0.805392186 36.8201347,1.98549166 C37.7906014,3.29813817 37.592194,5.20510984 37.592194,6.87691948 L37.587882,16.7239072 C37.587882,17.036035 37.3247772,17.2883004 36.9969752,17.2883004 L33.9346119,17.2883004 C33.6283784,17.2669241 33.3825268,17.0232079 33.3825268,16.7239072 L33.3825268,8.45466005 C33.3825268,7.79619949 33.4429088,6.15432189 33.2962626,5.5300647 C33.0676642,4.48251552 32.3818675,4.1874878 31.4933497,4.1874878 C30.7514813,4.1874878 29.9751083,4.67919632 29.6602457,5.46593093 C29.3453831,6.25266392 29.3755758,7.56958341 29.3755758,8.45466005 L29.3755758,16.7239072 C29.3755758,17.036035 29.1124711,17.2883004 28.784669,17.2883004 L25.7223091,17.2883004 C25.4117602,17.2669241 25.1702207,17.0232079 25.1702207,16.7239072 L25.1659086,8.45466005 C25.1659086,6.71444205 25.454889,4.15328279 23.276733,4.15328279 C21.0726933,4.15328279 21.1589575,6.65030339 21.1589575,8.45466005 L21.1589575,16.7239072 C21.1589575,17.036035 20.8958528,17.2883004 20.5680507,17.2883004" id="path14"></path>
                                <path d="M77.2476201,0.279478661 C81.7980304,0.279478661 84.2608579,4.15328279 84.2608579,9.07891561 C84.2608579,13.8377931 81.5392361,17.6132552 77.2476201,17.6132552 C72.7791586,17.6132552 70.3465204,13.7394511 70.3465204,8.91216194 C70.3465204,4.05494076 72.8093512,0.279478661 77.2476201,0.279478661 M77.2734973,3.46489347 C75.013391,3.46489347 74.8710535,6.51775635 74.8710535,8.42045505 C74.8710535,10.3274267 74.8408609,14.3979133 77.2476201,14.3979133 C79.624185,14.3979133 79.7363281,11.1141613 79.7363281,9.11311898 C79.7363281,7.79619949 79.6802565,6.22273352 79.2791281,4.97422078 C78.9340729,3.88819036 78.2482794,3.46489347 77.2734973,3.46489347" id="path16"></path>
                                <path d="M90.1612965,17.2883004 L87.1075623,17.2883004 C86.8013238,17.2669241 86.5554723,17.0232079 86.5554723,16.7239072 L86.5511619,1.11751996 C86.5770408,0.831046345 86.8315198,0.608709755 87.1420686,0.608709755 L89.9844593,0.608709755 C90.2518745,0.62152868 90.4718471,0.80111758 90.532234,1.04483372 L90.532234,3.43068521 L90.5883023,3.43068521 C91.4466291,1.29710071 92.6500046,0.279478661 94.7677785,0.279478661 C96.143684,0.279478661 97.4850866,0.771187184 98.3477238,2.1180387 C99.1499758,3.36654981 99.1499758,5.46593093 99.1499758,6.97525825 L99.1499758,16.7965951 C99.1154711,17.0702384 98.8609921,17.2883004 98.5590723,17.2883004 L95.4837695,17.2883004 C95.20341,17.2669241 94.9704979,17.0616892 94.9403086,16.7965951 L94.9403086,8.32211302 C94.9403086,6.61610002 95.1387143,4.11907616 93.0209388,4.11907616 C92.27476,4.11907616 91.5889616,4.61506255 91.2482201,5.36758727 C90.8169039,6.32107555 90.7608324,7.27028597 90.7608324,8.32211302 L90.7608324,16.7239072 C90.7565219,17.036035 90.4891019,17.2883004 90.1612998,17.2883004" id="path18"></path>
                                <path d="M101.069342,16.0483434 C101.069342,15.2616087 101.74651,14.628804 102.578955,14.628804 C103.411399,14.628804 104.088569,15.2616087 104.088569,16.0483434 C104.088569,16.8307985 103.411399,17.472159 102.578955,17.472159 C101.74651,17.472159 101.069342,16.8307985 101.069342,16.0483434" id="path20"></path>
                                <path d="M133.560564,17.2925782 C133.241389,17.279743 132.991224,17.036035 132.991224,16.7281835 L132.991224,1.12607407 C133.008477,0.848149662 133.245702,0.630087678 133.538999,0.612987623 L134.664739,0.612987623 C134.97529,0.612987623 135.225453,0.835322582 135.251332,1.12607407 L135.251332,3.40075807 C136.053586,1.59640141 137.545948,0.185412867 139.43081,0.185412867 L139.547265,0.185412867 L139.659409,0.185412867 C141.660726,0.185412867 143.122895,1.64770973 143.666358,3.77274338 C144.516054,1.67336389 146.111934,0.185412867 148.216768,0.185412867 L148.324598,0.185412867 L148.44968,0.185412867 C149.937729,0.185412867 151.369706,1.13462328 152.111575,2.57981682 C152.827562,3.96087497 152.801683,5.799435 152.801683,7.34297058 L152.797373,16.7281835 C152.801683,17.0274809 152.555835,17.2711971 152.2496,17.2925782 L150.903885,17.2925782 C150.610588,17.279743 150.373364,17.0745163 150.334545,16.805146 L150.334545,7.34297058 C150.334545,6.22700976 150.390617,5.04263242 149.933419,4.02501037 C149.467595,2.9860104 148.574765,2.33610068 147.617239,2.28907023 C146.547569,2.34037692 145.564162,3.11428445 144.92581,4.15756066 C144.097679,5.50441054 144.127872,6.71871502 144.127872,8.29218262 L144.127872,16.8136952 C144.089053,17.0702384 143.860453,17.2711971 143.580097,17.2925782 L142.24301,17.2925782 C141.923834,17.279743 141.669356,17.036035 141.669356,16.7281835 L141.660735,6.71871502 C141.660735,5.799435 141.604664,4.71767756 141.17766,3.89246333 C140.681643,2.95180702 139.793127,2.33610068 138.861478,2.28907023 C137.895325,2.34465479 136.920545,3.07580321 136.342579,3.9266716 C135.596397,5.01270202 135.454063,6.35527893 135.454063,7.7363387 L135.454063,16.7281835 C135.454063,17.0274809 135.208212,17.2711971 134.901975,17.2925782 L133.560574,17.2925782" id="path22"></path>
                                <path d="M124.321721,17.6175331 C119.969718,17.6175331 118.020158,13.2178138 118.020158,8.81809615 C118.020158,4.19176403 120.31046,0.185412867 124.692655,0.185412867 L124.804799,0.185412867 L124.925568,0.185412867 C129.186994,0.185412867 131.309082,4.45258512 131.309082,8.85230278 C131.309082,13.5128383 128.958396,17.6175331 124.550321,17.6175331 L124.438178,17.6175331 L124.321721,17.6175331 M124.640898,15.4839486 C126.072875,15.4369133 127.202929,14.5561145 127.871474,13.0895446 C128.471007,11.7726203 128.587462,10.2632897 128.587462,8.81809615 C128.587462,7.24462855 128.414935,5.6027542 127.668753,4.25589943 C127.000209,3.08007619 125.852902,2.33182771 124.636584,2.28907023 C123.282244,2.33610068 122.070239,3.24682986 121.462081,4.64926592 C120.914306,5.86357366 120.746091,7.47551761 120.746091,8.81809615 C120.746091,10.3274267 120.944497,12.071921 121.574222,13.3845691 C122.186696,14.628804 123.364194,15.4369133 124.640898,15.4839486" id="path24"></path>
                                <path d="M110.722248,15.415537 C112.676123,15.3556745 113.702659,13.8035898 114.125351,11.7939982 C114.211615,11.5417312 114.405709,11.3493234 114.690379,11.3493234 L115.980022,11.3450504 C116.286257,11.3578693 116.566615,11.5887665 116.540736,11.8709672 C115.945516,15.295817 113.862248,17.6175364 110.894777,17.6175364 L110.774008,17.6175364 L110.661864,17.6175364 C106.340051,17.6175364 104.476758,13.3161591 104.476758,8.95064481 C104.476758,4.61934205 106.365933,0.185416129 110.687743,0.185416129 L110.804199,0.185416129 L110.920655,0.185416129 C113.922632,0.185416129 116.061973,2.47720345 116.527797,5.90205816 C116.527797,6.15860139 116.286257,6.38093635 116.001587,6.41086674 L114.651561,6.39376343 C114.366891,6.35528219 114.181423,6.11584391 114.138291,5.84647361 C113.814802,3.93522407 112.706314,2.41306968 110.86027,2.35320726 C107.92299,2.44727305 107.086234,6.03032733 107.086234,8.78816738 C107.086234,11.4433924 107.784971,15.3214744 110.722248,15.4155402" id="path26"></path>
                                <path d="M49.3024916,9.8357182 C49.3024916,11.0200923 49.3326842,12.0077839 48.728838,13.0596126 C48.2414486,13.9147589 47.4650756,14.4406724 46.606752,14.4406724 C45.4292522,14.4406724 44.7391434,13.5513195 44.7391434,12.238673 C44.7391434,9.64758661 47.0812019,9.17725764 49.3024916,9.17725764 L49.3024916,9.8357182 M52.3950459,17.2455429 C52.1923281,17.4251236 51.8990291,17.4379507 51.6704307,17.3182324 C50.6525182,16.4801911 50.4670519,16.0911008 49.9106515,15.2915408 C48.2285091,16.9932775 47.0337545,17.5020861 44.8555969,17.5020861 C42.2719989,17.5020861 40.2663683,15.9243455 40.2663683,12.7645898 C40.2663683,10.2974963 41.6120844,8.61713748 43.5357646,7.79619949 C45.2006538,7.06932404 47.5254576,6.94105487 49.3024916,6.74009621 L49.3024916,6.34672971 C49.3024916,5.6241305 49.3585631,4.76898588 48.9272453,4.14473358 C48.5563112,3.58461179 47.8403201,3.35372273 47.2062846,3.35372273 C46.0374088,3.35372273 44.9979344,3.94804789 44.7434538,5.17945569 C44.6916959,5.45310386 44.4889781,5.72247416 44.2086186,5.73530124 L41.236835,5.41889559 C40.9866698,5.3633143 40.7063135,5.16235237 40.7796383,4.78181622 C41.4611212,1.20731278 44.7218902,0.129828312 47.6376007,0.129828312 C49.1299648,0.129828312 51.0795239,0.523194804 52.2570238,1.64343349 C53.7493845,3.02449163 53.6070504,4.86732791 53.6070504,6.87264324 L53.6070504,11.6101428 C53.6070504,13.0339601 54.2022692,13.6582124 54.7629833,14.4278453 C54.9570787,14.7014886 55.0002108,15.0307197 54.7500357,15.2359546 C54.1246242,15.7533189 53.0118217,16.7153564 52.3993497,17.254097 L52.3950393,17.2455347" id="path28"></path>
                                <path d="M9.09929416,9.8357182 C9.09929416,11.0200923 9.12948351,12.0077839 8.5256404,13.0596126 C8.03824773,13.9147589 7.2661884,14.4406724 6.40355116,14.4406724 C5.22605132,14.4406724 4.54025622,13.5513195 4.54025622,12.238673 C4.54025622,9.64758661 6.88231477,9.17725764 9.09929416,9.17725764 L9.09929416,9.8357182 M12.1918468,17.2455429 C11.9891274,17.4251236 11.6958284,17.4379507 11.46723,17.3182324 C10.4493208,16.4801911 10.2681649,16.0911008 9.70745081,15.2915408 C8.02530826,16.9932775 6.83487225,17.5020861 4.65239773,17.5020861 C2.07311175,17.5020861 0.063170599,15.9243455 0.063170599,12.7645898 C0.063170599,10.2974963 1.41319722,8.61713748 3.33256374,7.79619949 C4.99745295,7.06932404 7.32225998,6.94105487 9.09929416,6.74009621 L9.09929416,6.34672971 C9.09929416,5.6241305 9.15536574,4.76898588 8.72835999,4.14473358 C8.35311031,3.58461179 7.63712421,3.35372273 7.00739739,3.35372273 C5.83852661,3.35372273 4.79473352,3.94804789 4.54025622,5.17945569 C4.4884967,5.45310386 4.28577727,5.72247416 4.00973473,5.73530124 L1.0336373,5.41889559 C0.78347205,5.3633143 0.507427868,5.16235237 0.576438914,4.78181622 C1.26223566,1.20731278 4.51868934,0.129828312 7.43440478,0.129828312 C8.92676408,0.129828312 10.8763232,0.523194804 12.0538231,1.64343349 C13.5461871,3.02449163 13.4038497,4.86732791 13.4038497,6.87264324 L13.4038497,11.6101428 C13.4038497,13.0339601 13.9990718,13.6582124 14.5597859,14.4278453 C14.7581917,14.7014886 14.8013238,15.0307197 14.5511585,15.2359546 C13.9257471,15.7533189 12.8129462,16.7153564 12.2004709,17.254097 L12.1918468,17.2455347" id="path30"></path>
                            </g>
                        </g>
                    </g>
                </g>
            </g>
        </g>
    </g>
</svg>