<?xml version="1.0" encoding="UTF-8"?>
<svg width="143px" height="53px" viewBox="0 0 143 53" version="1.1" xmlns="http://www.w3.org/2000/svg" xmlns:xlink="http://www.w3.org/1999/xlink">
    <!-- Generator: Sketch 41.2 (35397) - http://www.bohemiancoding.com/sketch -->
    <title>amex</title>
    <desc>Created with Sketch.</desc>
    <defs></defs>
    <g id="Desktop" stroke="none" stroke-width="1" fill="none" fill-rule="evenodd">
        <g id="Artboard-2" transform="translate(-774.000000, -453.000000)">
            <g id="Group-2" transform="translate(188.000000, 445.000000)">
                <g id="amex" transform="translate(586.600000, 8.000000)">
                    <g id="Layer_1">
                        <path d="M36.8188889,23.7067568 L36.8188889,21.9162162 L35.9522222,23.7067568 L28.4555556,23.7067568 L27.5166667,21.7872973 L27.5166667,23.7210811 L13.4911111,23.7210811 L11.83,19.8391892 L9.02777778,19.8391892 L7.28,23.7210811 L0.0577777778,23.7210811 L0.0577777778,11.9751351 L5.38777778,0.0143243243 L15.5855556,0.0143243243 L17.03,3.40918919 L17.03,0.042972973 L29.51,0.042972973 L32.2544444,5.7727027 L34.9411111,0.042972973 L74.3455556,0.042972973 C75.548967,0.0382333723 76.7314665,0.35490261 77.7688889,0.95972973 L77.7688889,0.042972973 L87.6922222,0.042972973 L87.6922222,1.33216216 C89.0080378,0.485865522 90.5439031,0.0378969975 92.1122222,0.042972973 L109.618889,0.042972973 L111.164444,3.48081081 L111.164444,0.042972973 L122.387778,0.042972973 L124.424444,3.48081081 L124.424444,0.042972973 L135.156667,0.042972973 L135.156667,23.7640541 L124.135556,23.7640541 L121.55,19.6243243 L121.55,23.7354054 L107.856667,23.7354054 L105.935556,19.4381081 L103.248889,19.4381081 L101.443333,23.7354054 L93.1522222,23.7354054 C91.2263832,23.6644875 89.3553305,23.0806257 87.7355556,22.0451351 L87.7355556,23.7354054 L71.1388889,23.7354054 L71.1388889,18.2062162 C71.1787013,18.0219884 71.1312983,17.8298231 71.0102239,17.6846251 C70.8891495,17.5394271 70.7077218,17.4571683 70.5177778,17.4613514 L69.9111111,17.4613514 L69.9111111,23.7354054 L36.8188889,23.7354054 L36.8188889,23.7067568 Z" id="Shape" fill="#FFFFFF"></path>
                        <path d="M28.5855556,28.8348649 L50.2522222,28.8348649 L53.3866667,32.3443243 L56.5933333,28.8348649 L73.2766667,28.8348649 C74.3396705,28.8993693 75.3775488,29.1822904 76.3244444,29.6656757 L76.3244444,28.8348649 L91.1733333,28.8348649 C92.3873987,28.8654659 93.576296,29.1847812 94.64,29.7659459 L94.64,28.8348649 L113.735556,28.8348649 L113.735556,29.6943243 C114.706323,29.1378143 115.806501,28.8416074 116.927778,28.8348649 L129.364444,28.8348649 L129.364444,29.6943243 C130.360693,29.1747541 131.460909,28.8811937 132.585556,28.8348649 L142.35,28.8348649 L142.35,51.1808108 C141.285921,52.1689935 139.862631,52.6860096 138.406667,52.6132432 L125.536667,52.6132432 L125.536667,51.8683784 C124.580381,52.352904 123.519333,52.5987508 122.445556,52.5845946 L88.2555556,52.5845946 L88.2555556,46.8548649 C88.2555556,46.2818919 88.01,46.1816216 87.49,46.1816216 L87.0133333,46.1816216 L87.0133333,52.6275676 L76.3244444,52.6275676 L76.3244444,46.2245946 C75.3314204,46.6685645 74.2499916,46.884031 73.1611111,46.8548649 L69.2755556,46.8548649 L69.2755556,52.5845946 L56.1022222,52.5845946 L53.1555556,49.0035135 L49.9488889,52.6275676 L28.5855556,52.6275676 L28.5855556,28.8348649 Z" id="Shape" fill="#FFFFFF"></path>
                        <polygon id="Shape" fill="#9D9AA3" points="96.9511111 32.4016216 110.557778 32.4016216 110.557778 36.0256757 101.111111 36.0256757 101.111111 39.177027 110.297778 39.177027 110.297778 42.3713514 101.111111 42.3713514 101.111111 45.6802703 110.557778 45.6802703 110.557778 49.2183784 96.9511111 49.2183784"></polygon>
                        <path d="M136.846667,38.9764865 C141.96,39.2343243 142.393333,41.8413514 142.393333,44.477027 C142.37732,45.8347885 141.795405,47.1254399 140.785723,48.0426068 C139.77604,48.9597738 138.428628,49.4216692 137.063333,49.3186486 L128.324444,49.3186486 L128.324444,45.7089189 L135.142222,45.7089189 C136.297778,45.7089189 138.031111,45.7089189 138.031111,44.0902703 C138.031111,43.3167568 137.727778,42.8297297 136.5,42.6578378 C135.951111,42.5862162 133.928889,42.4716216 133.611111,42.4572973 C128.988889,42.3427027 127.905556,40.0508108 127.905556,37.2862162 C127.837009,35.9647431 128.340519,34.6770889 129.289525,33.7469184 C130.23853,32.8167479 131.542783,32.3325185 132.874444,32.4159459 L141.613333,32.4159459 L141.613333,36.1116216 L135.214444,36.1116216 C133.77,36.1116216 132.195556,35.9397297 132.195556,37.5440541 C132.195556,38.5754054 132.975556,38.7902703 133.957778,38.8762162 C134.275556,38.8475676 136.543333,38.9764865 136.846667,38.9764865 Z" id="Shape" fill="#9D9AA3"></path>
                        <path d="M121.174444,38.9764865 C126.287778,39.2343243 126.721111,41.8413514 126.721111,44.477027 C126.705376,45.8374802 126.12149,47.1305568 125.10856,48.0481865 C124.095631,48.9658163 122.744354,49.4258362 121.376667,49.3186486 L112.608889,49.3186486 L112.608889,45.7089189 L119.426667,45.7089189 C120.582222,45.7089189 122.315556,45.7089189 122.315556,44.0902703 C122.315556,43.3167568 122.012222,42.8297297 120.784444,42.6578378 C120.235556,42.5862162 118.213333,42.4716216 117.895556,42.4572973 C113.273333,42.3427027 112.204444,40.0508108 112.204444,37.2862162 C112.131595,35.966118 112.631687,34.678173 113.578506,33.747441 C114.525324,32.816709 115.828412,32.3321085 117.158889,32.4159459 L125.897778,32.4159459 L125.897778,36.1116216 L119.498889,36.1116216 C118.054444,36.1116216 116.465556,35.9397297 116.465556,37.5440541 C116.465556,38.5754054 117.245556,38.7902703 118.227778,38.8762162 C118.603333,38.8475676 120.871111,38.9764865 121.174444,38.9764865 Z" id="Shape" fill="#9D9AA3"></path>
                        <path d="M71.8033333,32.4445946 L57.2,32.4445946 L52.4333333,37.6586486 L47.8111111,32.4016216 L31.4022222,32.4016216 L31.4022222,49.2183784 L47.2911111,49.2183784 L52.2888889,43.6605405 L57.1711111,49.2613514 L65.1588889,49.2613514 L65.1588889,43.5316216 L70.72,43.5316216 C72.8722222,43.5316216 76.8155556,43.46 76.8155556,37.5583784 C76.955839,36.1896194 76.4784282,34.8294235 75.5114575,33.8428592 C74.5444867,32.856295 73.1869981,32.3444112 71.8033333,32.4445946 Z M45.0955556,45.6945946 L35.5044444,45.6945946 L35.5044444,42.3713514 L44.72,42.3713514 L44.72,39.177027 L35.5333333,39.177027 L35.5333333,36.0256757 L45.6444444,36.0256757 L49.7033333,40.6094595 L45.0955556,45.6945946 Z M60.9844444,47.6427027 L55.0044444,40.6237838 L60.9844444,34.0489189 L60.9844444,47.6427027 Z M70.3733333,40.0794595 L65.1877778,40.0794595 L65.1877778,36.1116216 L70.3877778,36.1116216 C71.2038848,35.9395556 72.0437671,36.2748768 72.5119966,36.9597114 C72.9802261,37.6445459 72.9834829,38.5424038 72.5202336,39.2305611 C72.0569843,39.9187184 71.2195564,40.2600229 70.4022222,40.0937838 L70.3733333,40.0794595 Z" id="Shape" fill="#9D9AA3"></path>
                        <path d="M91.9244444,41.5978378 C93.8139788,40.8437223 94.9859931,38.9550372 94.8133333,36.9424324 C94.8133333,33.347027 91.9244444,32.4445946 89.8155556,32.4445946 L78.9966667,32.4445946 L78.9966667,49.2613514 L83.1566667,49.2613514 L83.1566667,43.2737838 L88.6022222,43.2737838 C90.0466667,43.2737838 90.61,44.7062162 90.6388889,46.1386486 L90.7544444,49.2183784 L94.7988889,49.2183784 L94.6544444,45.7662162 C94.64,43.1018919 93.8311111,41.8413514 91.9244444,41.5978378 Z M88.3277778,39.8645946 L83.1422222,39.8645946 L83.1422222,36.1116216 L88.3422222,36.1116216 C88.9136257,36.0243461 89.4950901,36.1873921 89.9358037,36.5584711 C90.3765173,36.9295501 90.6330583,37.4721012 90.6388889,38.0454054 C90.6388889,39.1054054 90.0322222,39.8645946 88.3277778,39.8645946 Z" id="Shape" fill="#9D9AA3"></path>
                        <rect id="Rectangle-path" fill="#9D9AA3" x="80.6433333" y="3.36621622" width="4.16" height="16.8310811"></rect>
                        <polygon id="Shape" fill="#9D9AA3" points="46.5688889 3.39486486 60.1755556 3.39486486 60.1755556 7.00459459 50.7288889 7.00459459 50.7288889 10.1702703 59.9155556 10.1702703 59.9155556 13.3502703 50.7288889 13.3502703 50.7288889 16.6735135 60.1755556 16.6735135 60.1755556 20.2116216 46.5688889 20.2116216"></polygon>
                        <path d="M75.5877778,12.5481081 C77.480509,11.7977541 78.6541532,9.90644243 78.4766667,7.8927027 C78.4766667,4.28297297 75.5877778,3.39486486 73.4788889,3.39486486 L62.66,3.39486486 L62.66,20.2116216 L66.82,20.2116216 L66.82,14.2813514 L72.2655556,14.2813514 C73.71,14.2813514 74.2733333,15.7137838 74.3166667,17.1462162 L74.4322222,20.2259459 L78.4766667,20.2259459 L78.3322222,16.7737838 C78.3177778,14.0521622 77.5522222,12.7772973 75.5877778,12.5481081 Z M71.9911111,10.8148649 L66.8055556,10.8148649 L66.8055556,7.00459459 L72.0055556,7.00459459 C72.5746953,6.92188733 73.152118,7.08702992 73.5894417,7.45758516 C74.0267654,7.82814039 74.2813513,8.36797951 74.2877778,8.93837838 C74.3022222,10.0556757 73.6955556,10.8148649 71.9911111,10.8148649 L71.9911111,10.8148649 Z" id="Shape" fill="#9D9AA3"></path>
                        <path d="M36.9633333,3.39486486 L31.85,14.6251351 L26.7511111,3.35189189 L20.1644444,3.35189189 L20.1644444,19.5527027 L12.9422222,3.35189189 L7.45333333,3.35189189 L0.0288888889,20.1686486 L4.36222222,20.1686486 L5.98,16.4156757 L14.3866667,16.4156757 L16.0333333,20.1686486 L24.4111111,20.1686486 L24.4111111,7.69216216 L29.9722222,20.1686486 L33.7566667,20.1686486 L39.4477778,7.8927027 L39.4477778,20.1686486 L43.6077778,20.1686486 L43.6077778,3.39486486 L36.9633333,3.39486486 Z M7.62666667,12.8345946 L10.1111111,6.96162162 L12.6966667,12.8345946 L7.62666667,12.8345946 L7.62666667,12.8345946 Z" id="Shape" fill="#9D9AA3"></path>
                        <path d="M127.775556,3.38054054 L127.775556,15.0262162 L120.755556,3.38054054 L114.602222,3.38054054 L114.602222,19.1372973 L107.51,3.38054054 L102.006667,3.38054054 L96.2288889,16.4013514 L93.5566667,16.4013514 C92.5455556,16.2008108 90.9855556,15.4989189 90.9711111,12.5337838 L90.9711111,11.3162162 C90.9711111,7.37702703 93.1377778,7.01891892 95.8966667,7.01891892 L98.4677778,7.01891892 L98.4677778,3.36621622 L93.0366667,3.36621622 C91.1444444,3.36621622 87.0277778,4.79864865 86.8833333,11.702973 C86.7822222,16.3583784 88.8333333,20.1972973 93.4411111,20.1972973 L98.93,20.1972973 L100.562222,16.4443243 L108.867778,16.4443243 L110.514444,20.1972973 L118.733333,20.1972973 L118.733333,7.87837838 L126.23,20.1972973 L131.906667,20.1972973 L131.906667,3.38054054 L127.775556,3.38054054 Z M102.208889,12.8345946 L104.693333,6.96162162 L107.307778,12.8345946 L102.223333,12.8345946 L102.208889,12.8345946 Z" id="Shape" fill="#9D9AA3"></path>
                    </g>
                </g>
            </g>
        </g>
    </g>
</svg>