<?xml version="1.0" encoding="UTF-8"?>
<svg width="54px" height="64px" viewBox="0 0 54 64" version="1.1" xmlns="http://www.w3.org/2000/svg" xmlns:xlink="http://www.w3.org/1999/xlink">
    <!-- Generator: Sketch 41.2 (35397) - http://www.bohemiancoding.com/sketch -->
    <title>apple</title>
    <desc>Created with Sketch.</desc>
    <defs></defs>
    <g id="Desktop" stroke="none" stroke-width="1" fill="none" fill-rule="evenodd">
        <g id="Artboard-2" transform="translate(-1168.000000, -445.000000)" fill="#9D9AA3">
            <g id="Group-2" transform="translate(188.000000, 445.000000)">
                <g id="apple" transform="translate(980.000000, 0.000000)">
                    <path d="M52.5795652,49.6585366 C51.6208696,51.8673171 50.486087,53.9004878 49.1713043,55.7697561 C47.3791304,58.3180488 45.9117391,60.0819512 44.7808696,61.0614634 C43.0278261,62.6692683 41.1495652,63.4926829 39.1382609,63.5395122 C37.6943478,63.5395122 35.9530435,63.1297561 33.926087,62.2985366 C31.8924783,61.4712195 30.0236087,61.0614634 28.3147826,61.0614634 C26.5226087,61.0614634 24.6005217,61.4712195 22.5446087,62.2985366 C20.4855652,63.1297561 18.8268261,63.5629268 17.5586087,63.6058537 C15.6298696,63.6878049 13.7073913,62.8409756 11.7884348,61.0614634 C10.5636522,59.9960976 9.03169565,58.1697561 7.19647826,55.582439 C5.22743478,52.8195122 3.6086087,49.6156098 2.3403913,45.9629268 C0.982173913,42.017561 0.301304348,38.1970732 0.301304348,34.4983415 C0.301304348,30.2614634 1.21930435,26.6072195 3.05804348,23.5449756 C4.50313043,21.0852683 6.4256087,19.1449756 8.83173913,17.7205854 C11.2378696,16.2961951 13.8376957,15.5703415 16.6374783,15.5239024 C18.1694348,15.5239024 20.1783913,15.9964878 22.674913,16.9252683 C25.1643913,17.8571707 26.7628696,18.3297561 27.4636957,18.3297561 C27.9876522,18.3297561 29.7633913,17.7771707 32.7736957,16.6755122 C35.6204348,15.6538537 38.0230435,15.2308293 39.9913043,15.3974634 C45.3247826,15.8267317 49.3317391,17.9235122 51.9965217,21.7010732 C47.2265217,24.5834146 44.8669565,28.6204878 44.913913,33.7994146 C44.9569565,37.8333659 46.4243478,41.1902439 49.3082609,43.8556098 C50.6152174,45.0926829 52.0747826,46.0487805 53.6986957,46.7278049 C53.3465217,47.7463415 52.9747826,48.7219512 52.5795652,49.6585366 L52.5795652,49.6585366 Z M40.3473913,1.65463415 C40.3473913,4.81642927 39.1891304,7.76858537 36.8804348,10.5010732 C34.0943478,13.7494634 30.7244348,15.6265366 27.0700435,15.3303415 C27.0234783,14.9510244 26.9964783,14.5518049 26.9964783,14.1322927 C26.9964783,11.0969756 28.3214348,7.84858537 30.6743478,5.19258537 C31.8490435,3.84780488 33.3430435,2.72963902 35.1547826,1.83765854 C36.9626087,0.958985366 38.6726087,0.473053659 40.2808696,0.389853659 C40.3278261,0.812526829 40.3473913,1.23523902 40.3473913,1.65459512 L40.3473913,1.65463415 Z" id="Shape"></path>
                </g>
            </g>
        </g>
    </g>
</svg>