<?xml version="1.0" encoding="UTF-8"?>
<svg width="157px" height="19px" viewBox="0 0 157 19" version="1.1" xmlns="http://www.w3.org/2000/svg" xmlns:xlink="http://www.w3.org/1999/xlink">
    <!-- Generator: Sketch 41.2 (35397) - http://www.bohemiancoding.com/sketch -->
    <title>classpass</title>
    <desc>Created with Sketch.</desc>
    <defs></defs>
    <g id="Desktop" stroke="none" stroke-width="1" fill="none" fill-rule="evenodd">
        <g id="Artboard-2" transform="translate(-967.000000, -473.000000)" fill="#9D9AA3">
            <g id="Group-2" transform="translate(188.000000, 445.000000)">
                <g id="classpass" transform="translate(779.000000, 27.000000)">
                    <g id="Group" transform="translate(78.500000, 10.476312) scale(1, -1) translate(-78.500000, -10.476312) translate(0.000000, 0.976312)">
                        <path d="M5.97985294,17.8372987 C0.761911765,16.2028052 -1.61617647,9.40425974 1.24676471,4.38233766 C2.07794118,2.91366234 3.94808824,1.27916883 5.495,0.663272727 C6.53397059,0.236883117 7.27279412,0.118441558 9.00441176,0.118441558 C11.5902941,0.118441558 12.7677941,0.568519481 14.4301471,2.13194805 L15.4922059,3.12685714 L14.8688235,3.55324675 C14.2454412,3.97963636 14.2223529,3.97963636 13.2064706,3.0321039 C9.90485294,0.0473766234 4.38676471,1.37392208 2.37808824,5.61412987 C1.84705882,6.77485714 1.75470588,7.27231169 1.73161765,9.09631169 C1.73161765,10.9203117 1.82397059,11.4177662 2.33191176,12.5548052 C3.57867647,15.278961 5.93367647,16.8423896 8.84279412,16.8660779 C10.7360294,16.8660779 12.0982353,16.3686234 13.4373529,15.1605195 C14.2916176,14.4024935 14.2916176,14.4024935 14.915,14.8288831 L15.5383824,15.2315844 L14.4532353,16.2264935 C12.9525,17.6477922 11.3132353,18.2163117 8.93514706,18.1926234 C7.89617647,18.1926234 6.55705882,18.0268052 5.97985294,17.8372987 Z" id="Shape"></path>
                        <path d="M58.6210294,17.8846753 C56.0351471,16.9371429 54.7652941,14.3314286 55.735,11.9625974 C56.3352941,10.5176104 57.4435294,9.87802597 61.8302941,8.5041039 C64.9933824,7.53288312 65.9169118,6.72748052 65.9169118,4.99823377 C65.9169118,2.91366234 64.5316176,1.65818182 62.015,1.46867532 C60.1217647,1.30285714 58.4132353,1.824 56.8663235,3.0321039 L55.6657353,3.97963636 L55.2963235,3.36374026 C54.9269118,2.79522078 54.9269118,2.74784416 55.4348529,2.20301299 C56.3583824,1.18441558 58.6210294,0.213194805 60.3988235,0.0473766234 C63.6311765,-0.213194805 66.0554412,0.805402597 67.0713235,2.91366234 C67.7870588,4.35864935 67.8101471,5.66150649 67.1636765,7.03542857 C66.4017647,8.62254545 65.3858824,9.19106494 60.8144118,10.6123636 C57.8822059,11.5125195 57.0279412,12.2231688 57.0279412,13.7155325 C57.0279412,15.8001039 59.6138235,17.3161558 62.2689706,16.8187013 C63.8620588,16.5107532 64.4854412,16.2028052 65.3858824,15.3974026 L66.1939706,14.6867532 L66.7480882,15.278961 L67.3022059,15.8948571 L66.4941176,16.5818182 C65.1780882,17.6951688 63.5157353,18.2163117 61.3454412,18.2163117 C60.3064706,18.1926234 59.0827941,18.0504935 58.6210294,17.8846753 Z" id="Shape"></path>
                        <path d="M76.3066176,17.6714805 C73.7669118,16.416 72.8433824,13.9287273 74.0208824,11.5362078 C74.4826471,10.6123636 76.1219118,9.71220779 78.9386765,8.85942857 C83.0714706,7.58025974 84.0411765,6.82223377 84.0411765,4.80872727 C84.0411765,2.72415584 82.3557353,1.51605195 79.4235294,1.51605195 C77.4610294,1.53974026 75.8679412,2.13194805 74.6673529,3.31636364 L73.9747059,4.00332468 L73.3975,3.38742857 L72.8433824,2.77153247 L73.7669118,1.96612987 C76.3527941,-0.28425974 81.1320588,-0.639584416 83.8102941,1.23179221 C84.9647059,2.01350649 85.6573529,3.38742857 85.6573529,4.87979221 C85.6573529,7.76976623 84.3875,8.95418182 79.8622059,10.3044156 C76.1911765,11.3703896 75.1522059,12.1284156 75.1522059,13.7155325 C75.1522059,16.4633766 79.0772059,17.8372987 82.2633824,16.2264935 C82.9560294,15.8948571 83.6948529,15.3974026 83.9257353,15.1368312 C84.3182353,14.6867532 84.3413235,14.6867532 84.78,15.278961 C85.2417647,15.8474805 85.2417647,15.8711688 84.8261765,16.3686234 C84.5722059,16.6291948 83.8795588,17.1266494 83.2330882,17.4582857 C82.2633824,17.9794286 81.7092647,18.0741818 79.7698529,18.1452468 C77.715,18.24 77.3455882,18.1689351 76.3066176,17.6714805 Z" id="Shape"></path>
                        <path d="M130.125294,17.9794286 C126.754412,16.9371429 125.6,12.5784935 128.162794,10.564987 C129.063235,9.87802597 129.894412,9.5227013 133.172941,8.5041039 C136.128235,7.58025974 137.121029,6.79854545 137.305735,5.18774026 C137.513529,3.17423377 135.943529,1.68187013 133.357647,1.46867532 C131.4875,1.30285714 129.755882,1.824 128.255147,3.00841558 L127.077647,3.93225974 L126.662059,3.36374026 C126.246471,2.79522078 126.246471,2.77153247 126.7775,2.20301299 C127.077647,1.87137662 128.001176,1.27916883 128.809265,0.852779221 C130.217647,0.14212987 130.494706,0.0947532468 132.641912,0.0947532468 C134.696765,0.0947532468 135.089265,0.165818182 136.220588,0.734337662 C138.667941,1.96612987 139.637647,4.54815584 138.5525,6.98805195 C137.859853,8.55148052 136.751618,9.19106494 132.641912,10.4465455 C131.372059,10.8255584 130.009853,11.3467013 129.617353,11.6072727 C128.116618,12.5548052 128.001176,14.5446234 129.409559,15.8001039 C131.164265,17.3872208 134.558235,17.2214026 136.820882,15.4447792 L137.628971,14.8288831 L138.136912,15.350026 L138.644853,15.8711688 L137.836765,16.5818182 C136.566912,17.6951688 134.881471,18.2163117 132.688088,18.1926234 C131.649118,18.1926234 130.494706,18.0741818 130.125294,17.9794286 Z" id="Shape"></path>
                        <path d="M147.649265,17.6714805 C144.186029,15.9896104 143.862794,11.8678442 147.002794,10.1149091 C147.626176,9.75958442 149.103824,9.19106494 150.304412,8.85942857 C154.275588,7.6987013 155.383824,6.82223377 155.383824,4.92716883 C155.383824,2.67677922 153.86,1.51605195 150.881618,1.51605195 C148.780588,1.51605195 147.256765,2.08457143 146.01,3.31636364 L145.317353,4.00332468 L144.763235,3.41111688 C144.139853,2.72415584 144.255294,2.48727273 145.894559,1.4212987 C147.418382,0.402701299 149.565588,-0.118441558 151.574265,0.0473766234 C155.106765,0.331636364 157,2.08457143 157,5.0692987 C157,7.79345455 155.683971,8.97787013 151.204853,10.3044156 C147.533824,11.3703896 146.494853,12.1284156 146.494853,13.7155325 C146.494853,15.5632208 148.226471,16.8897662 150.627647,16.8897662 C152.382353,16.8660779 153.490588,16.5107532 154.806618,15.4921558 L155.8225,14.6867532 L156.191912,15.278961 C156.561324,15.8474805 156.538235,15.9185455 156.145735,16.3686234 C155.914853,16.6291948 155.222206,17.1266494 154.575735,17.4582857 C153.606029,17.9794286 153.051912,18.0741818 151.1125,18.1452468 C149.057647,18.24 148.688235,18.1689351 147.649265,17.6714805 Z" id="Shape"></path>
                        <polygon id="Shape" points="20.7794118 9.09631169 20.7794118 0.213194805 25.8588235 0.213194805 30.9382353 0.213194805 30.9382353 0.923844156 30.9382353 1.63449351 26.6669118 1.63449351 22.3955882 1.63449351 22.3955882 9.80696104 22.3955882 17.9794286 21.5875 17.9794286 20.7794118 17.9794286"></polygon>
                        <path d="M41.5819118,17.3398442 C41.0047059,16.036987 34.6323529,0.42638961 34.6323529,0.307948052 C34.6323529,0.236883117 35.0248529,0.213194805 35.4866176,0.260571429 C36.3408824,0.331636364 36.3639706,0.355324675 37.2644118,2.53464935 L38.1648529,4.71397403 L42.8286765,4.71397403 L47.4925,4.71397403 L48.3698529,2.46358442 L49.2702941,0.213194805 L50.1707353,0.213194805 C50.6555882,0.213194805 51.025,0.307948052 50.9788235,0.42638961 C50.9557353,0.544831169 49.3164706,4.52446753 47.3539706,9.30950649 L43.7983824,17.9794286 L42.8286765,17.9794286 C41.9975,17.9794286 41.8127941,17.8846753 41.5819118,17.3398442 Z M44.8835294,11.2519481 C45.9686765,8.55148052 46.8691176,6.2774026 46.8691176,6.23002597 C46.8691176,6.18264935 45.0451471,6.13527273 42.8286765,6.13527273 C40.6122059,6.13527273 38.7882353,6.18264935 38.7882353,6.25371429 C38.7882353,6.46690909 42.7825,16.3212468 42.8517647,16.2738701 C42.8748529,16.2264935 43.7983824,13.9761039 44.8835294,11.2519481 Z" id="Shape"></path>
                        <path d="M92.1220588,9.09631169 L92.1220588,0.213194805 L92.8147059,0.213194805 L93.5073529,0.213194805 L93.5073529,3.86119481 L93.5073529,7.48550649 L96.8089706,7.60394805 C100.272206,7.72238961 101.380441,8.00664935 102.465588,9.04893506 C104.936029,11.4177662 104.289559,15.9659221 101.288088,17.4109091 C100.156765,17.9320519 99.8335294,17.9794286 96.1163235,17.9794286 L92.1220588,17.9794286 L92.1220588,9.09631169 Z M100.387647,16.2264935 C101.888382,15.4210909 102.673382,13.6681558 102.303971,11.9862857 C101.772941,9.66483117 100.0875,8.88311688 95.9316176,9.02524675 L93.6227941,9.09631169 L93.5535294,12.8390649 L93.4842647,16.5581299 L96.6242647,16.5581299 C98.8638235,16.5581299 99.9489706,16.4633766 100.387647,16.2264935 Z" id="Shape"></path>
                        <path d="M113.063088,17.6951688 C112.993824,17.5293506 111.377647,13.5734026 109.461324,8.90680519 C107.545,4.24020779 105.975,0.355324675 105.975,0.307948052 C105.975,0.236883117 106.3675,0.213194805 106.852353,0.260571429 C107.706618,0.331636364 107.706618,0.355324675 108.607059,2.53464935 L109.5075,4.71397403 L114.171324,4.71397403 L118.812059,4.71397403 L119.597059,2.77153247 C120.012647,1.68187013 120.474412,0.663272727 120.589853,0.521142857 C120.89,0.118441558 122.46,0.118441558 122.298382,0.521142857 C122.252206,0.663272727 120.612941,4.6665974 118.673529,9.40425974 L115.141029,17.9794286 L114.171324,17.9794286 C113.594118,17.9794286 113.132353,17.860987 113.063088,17.6951688 Z M116.226176,11.2756364 C117.311324,8.57516883 118.211765,6.30109091 118.211765,6.25371429 C118.211765,6.18264935 116.387794,6.13527273 114.148235,6.13527273 C110.384853,6.13527273 110.084706,6.15896104 110.223235,6.56166234 C110.615735,7.62763636 114.148235,16.2975584 114.194412,16.2501818 C114.2175,16.2264935 115.141029,13.9997922 116.226176,11.2756364 Z" id="Shape"></path>
                    </g>
                </g>
            </g>
        </g>
    </g>
</svg>