<?xml version="1.0" encoding="UTF-8"?>
<svg width="147px" height="50px" viewBox="0 0 147 50" version="1.1" xmlns="http://www.w3.org/2000/svg" xmlns:xlink="http://www.w3.org/1999/xlink">
    <!-- Generator: Sketch 41.2 (35397) - http://www.bohemiancoding.com/sketch -->
    <title>google</title>
    <desc>Created with Sketch.</desc>
    <defs></defs>
    <g id="Desktop" stroke="none" stroke-width="1" fill="none" fill-rule="evenodd">
        <g id="Artboard-2" transform="translate(-388.000000, -458.000000)" fill="#9D9AA3">
            <g id="Group-2" transform="translate(188.000000, 445.000000)">
                <g id="google" transform="translate(200.200000, 13.000000)">
                    <g id="Welcome">
                        <g id="Desktop-HD">
                            <g id="Companies">
                                <g id="logo_google">
                                    <path d="M139.630606,31.4258621 L137.302654,33.6235632 C136.768087,33.9137931 136.23122,34.2545977 135.698378,34.4982759 C134.092953,35.2252874 132.439244,35.4195402 130.983268,35.4195402 C129.426701,35.4195402 126.995283,35.3224138 124.516732,33.5235632 C121.064465,31.0936782 119.559055,26.9137931 119.559055,23.2695402 C119.559055,15.7356322 125.684157,12.0408046 130.690118,12.0408046 C132.439244,12.0408046 134.240102,12.4793103 135.698378,13.4034483 C138.129795,15.0045977 138.75978,17.0948276 139.098913,18.2143678 L127.675276,22.8310345 L123.932732,23.1235632 C125.149591,29.2948276 129.328984,32.8936782 133.946953,32.8936782 C136.255937,32.8936782 137.972874,32.1344828 139.534039,31.3655172 C139.534039,31.3655172 139.855354,31.2 139.630606,31.4258621 M132.732969,19.137931 C133.654953,18.795977 134.141236,18.5063218 134.141236,17.8252874 C134.141236,15.8816092 131.95411,13.6454023 129.328984,13.6454023 C127.385,13.6454023 123.738449,15.1528736 123.738449,20.4017241 C123.738449,21.2275862 123.835016,22.1028736 123.884449,22.9787356 L132.732969,19.137931" id="Fill-1"></path>
                                    <path d="M115.346323,31.2172414 C115.346323,33.1126437 115.686606,33.4034483 117.290882,33.5488506 C118.118598,33.645977 118.944591,33.6942529 119.770008,33.7942529 L117.970299,34.8614943 L109.404583,34.8614943 C110.521425,33.4034483 110.715709,33.258046 110.715709,32.2862069 L110.715709,31.2051724 L110.704213,2.29597701 L106.913386,2.29597701 L110.559362,0.546551724 L117.509882,0.546551724 C116.004472,1.42298851 115.552102,1.95114943 115.357819,3.65229885 L115.346323,31.2172414" id="Fill-2"></path>
                                    <path d="M102.054575,14.3649425 C103.170268,15.2885057 105.504543,17.2310345 105.504543,20.9270115 C105.504543,24.5241379 103.463417,26.2252874 101.422291,27.8275862 C100.789433,28.4603448 100.060583,29.1402299 100.060583,30.2103448 C100.060583,31.2793103 100.789433,31.8637931 101.323425,32.2994253 L103.073701,33.6609195 C105.213693,35.458046 107.158252,37.112069 107.158252,40.4655172 C107.158252,45.0350575 102.733417,49.6511494 94.3723307,49.6511494 C87.3229449,49.6511494 83.9212598,46.2977011 83.9212598,42.7005747 C83.9212598,40.9505747 84.7961102,38.4735632 87.6655276,36.7706897 C90.6774961,34.9247126 94.762622,34.6827586 96.9485984,34.5356322 C96.2680315,33.6609195 95.4903228,32.7356322 95.4903228,31.2310345 C95.4903228,30.4045977 95.735189,29.9195402 95.9766063,29.3350575 C95.4408898,29.3833333 94.9074724,29.4321839 94.4206142,29.4321839 C89.2686535,29.4321839 86.3509528,25.5931034 86.3509528,21.8022989 C86.3509528,19.566092 87.3735276,17.0856322 89.462937,15.2885057 C92.2334882,13.004023 95.5397559,12.6155172 98.1631575,12.6155172 L108.177378,12.6155172 L105.066543,14.3649425 L102.054575,14.3649425 L102.054575,14.3649425 Z M98.6023071,35.9454023 C98.2114409,35.8965517 97.9694488,35.8965517 97.4854646,35.8965517 C97.046315,35.8965517 94.4206142,35.9936782 92.3794882,36.6735632 C91.3103543,37.0632184 88.1995197,38.2287356 88.1995197,41.6804598 C88.1995197,45.1321839 91.5517717,47.6091954 96.7554646,47.6091954 C101.422291,47.6091954 103.899118,45.3741379 103.899118,42.3614943 C103.899118,39.8816092 102.297142,38.5706897 98.6023071,35.9454023 L98.6023071,35.9454023 Z M100.012299,26.7114943 C101.131441,25.5931034 101.226858,24.0367816 101.226858,23.1614943 C101.226858,19.6626437 99.1357244,14.2189655 95.1017559,14.2189655 C93.8389134,14.2189655 92.4772047,14.8505747 91.6977717,15.8229885 C90.8729291,16.8448276 90.6292126,18.1563218 90.6292126,19.4189655 C90.6292126,22.6747126 92.5243386,28.0724138 96.7060315,28.0724138 C97.9205906,28.0724138 99.2322913,27.487931 100.012299,26.7114943 L100.012299,26.7114943 Z" id="Fill-3"></path>
                                    <path d="M72.2159685,35.3218391 C64.4865906,35.3218391 60.3543307,29.2954023 60.3543307,23.8511494 C60.3543307,17.4850575 65.5562992,12.0408046 72.9436693,12.0408046 C80.089622,12.0408046 84.5627402,17.6293103 84.5627402,23.5114943 C84.5627402,29.2448276 80.1396299,35.3218391 72.2159685,35.3218391 M78.2927874,31.3850575 C79.4579134,29.8316092 79.751063,27.8862069 79.751063,25.9890805 C79.751063,21.7114943 77.7076378,13.5477011 71.6791024,13.5477011 C70.0754016,13.5477011 68.471126,14.1804598 67.3042756,15.2005747 C65.4102992,16.9017241 65.0694409,19.041954 65.0694409,21.1310345 C65.0694409,25.9413793 67.4508504,33.8637931 73.332811,33.8637931 C75.227937,33.8637931 77.1730709,32.9413793 78.2927874,31.3850575" id="Fill-4"></path>
                                    <path d="M46.3498268,35.3218391 C38.6204488,35.3218391 34.488189,29.2954023 34.488189,23.8511494 C34.488189,17.4850575 39.6901575,12.0408046 47.0786772,12.0408046 C54.2234803,12.0408046 58.6965984,17.6293103 58.6965984,23.5114943 C58.6965984,29.2448276 54.2752126,35.3218391 46.3498268,35.3218391 M52.4254961,31.3850575 C53.5934961,29.8316092 53.8843465,27.8862069 53.8843465,25.9890805 C53.8843465,21.7114943 51.8426457,13.5477011 45.8141102,13.5477011 C44.2092598,13.5477011 42.6067087,14.1804598 41.4398583,15.2005747 C39.5441575,16.9017241 39.2032992,19.041954 39.2032992,21.1310345 C39.2032992,25.9413793 41.5858583,33.8637931 47.4678189,33.8637931 C49.3635197,33.8637931 51.3092283,32.9413793 52.4254961,31.3850575" id="Fill-5"></path>
                                    <path d="M31.3997717,34.1034483 L24.8826535,35.6086207 C22.2391339,36.0178161 19.8674961,36.3827586 17.3625039,36.3827586 C4.78408661,36.3827586 0,27.1327586 0,19.8873563 C0,11.0465517 6.789,2.8454023 18.4120945,2.8454023 C20.872252,2.8454023 23.2415906,3.2091954 25.3838819,3.80229885 C28.8016614,4.76034483 30.397315,5.94367816 31.3997717,6.62701149 L27.6164173,10.2281609 L26.0224882,10.5902299 L27.1611732,8.7683908 C25.6126535,7.26494253 22.7851969,4.4862069 17.4084882,4.4862069 C10.2067795,4.4862069 4.78408661,9.9545977 4.78408661,17.9281609 C4.78408661,26.4942529 10.9816142,34.5586207 20.9170866,34.5586207 C23.8353622,34.5586207 25.3390472,33.9672414 26.7047795,33.4195402 L26.7047795,26.083908 L19.823811,26.4488506 L23.4692126,24.4896552 L33.1316535,24.4896552 L31.9469843,25.6287356 C31.6273937,25.9022989 31.5831339,25.9936782 31.4905906,26.3574713 C31.4434567,26.7678161 31.3997717,28.0902299 31.3997717,28.5436782 L31.3997717,34.1034483" id="Fill-6"></path>
                                    <polyline id="Fill-7" points="141.600457 12.9252874 141.600457 15.9063218 141.235457 15.9063218 141.235457 12.9252874 140.251969 12.9252874 140.251969 12.6155172 142.586244 12.6155172 142.586244 12.9252874 141.600457 12.9252874"></polyline>
                                    <polyline id="Fill-8" points="145.607984 15.9057471 145.607984 12.8977011 145.594764 12.8977011 144.673929 15.9057471 144.392276 15.9057471 143.466268 12.8977011 143.451323 12.8977011 143.451323 15.9057471 143.125984 15.9057471 143.125984 12.6155172 143.688142 12.6155172 144.52563 15.2741379 144.537126 15.2741379 145.361969 12.6155172 145.935047 12.6155172 145.935047 15.9057471 145.607984 15.9057471"></polyline>
                                </g>
                            </g>
                        </g>
                    </g>
                </g>
            </g>
        </g>
    </g>
</svg>